<svg width="30" height="25" viewBox="0 0 30 25" fill="none" xmlns="http://www.w3.org/2000/svg">
<path d="M14.04 18.4566L15.96 18.4566C17.1 18.4566 18 17.5566 18 16.4166L18 8.49664C18 7.35664 18.9 6.45664 20.04 6.45664L21.96 6.45664C23.1 6.45664 24 5.55664 24 4.41664L24 2.49664C24 1.35664 24.9 0.456641 26.04 0.456641L27.96 0.456641C29.1 0.456641 30 1.35664 30 2.49664L30 4.41664C30 5.55664 29.1 6.45664 27.96 6.45664L26.04 6.45664C24.9 6.45664 24 7.35664 24 8.49664L24 16.4166C24 17.5566 23.1 18.4566 21.96 18.4566L20.04 18.4566C18.9 18.4566 18 19.3566 18 20.4966L18 22.4166C18 23.5566 17.1 24.4566 15.96 24.4566L14.04 24.4566C12.9 24.4566 12 23.5566 12 22.4166L12 20.4966C12 19.3566 11.1 18.4566 9.96 18.4566L8.04 18.4566C6.9 18.4566 6 17.5566 6 16.4166L6 8.49664C6 7.35664 5.1 6.45664 3.96 6.45664L2.04 6.45664C0.9 6.45664 -2.40904e-07 5.55664 -1.91073e-07 4.41664L-1.07147e-07 2.49664C-5.73165e-08 1.35664 0.9 0.45664 2.04 0.45664L3.96 0.45664C5.1 0.45664 6 1.35664 6 2.49664L6 4.41664C6 5.55664 6.9 6.45664 8.04 6.45664L9.96 6.45664C11.1 6.45664 12 7.35664 12 8.49664L12 16.4166C12 17.5566 12.9 18.4566 14.04 18.4566Z" fill="#191919"/>
</svg>
