<svg width="119" height="119" viewBox="0 0 119 119" fill="none" xmlns="http://www.w3.org/2000/svg">
<mask id="mask0_180_7" style="mask-type:luminance" maskUnits="userSpaceOnUse" x="29" y="15" width="60" height="90">
<path d="M29.168 15.5732H88.4424V104.125H29.168V15.5732Z" fill="white"/>
</mask>
<g mask="url(#mask0_180_7)">
<path d="M57.4163 87.7199C56.8952 87.8881 56.3207 88.051 55.6814 88.206C49.7343 89.6453 46.8172 92.3024 46.7679 96.3253C46.7306 99.3645 48.1664 101.584 50.8115 102.577C54.2174 103.855 58.9359 102.78 61.1161 100.228C63.131 97.869 63.6434 94.3207 62.3648 91.5971C61.4495 89.6487 59.7388 88.3242 57.4163 87.7199ZM54.0051 104.084C52.7822 104.084 51.5736 103.89 50.4723 103.476C47.421 102.331 45.763 99.7881 45.8066 96.3149C45.8606 91.8783 48.8935 88.9492 55.0742 87.3664C54.7477 87.348 54.4149 87.3411 54.0751 87.3457C44.0942 87.472 43.976 87.2017 43.8199 86.8597L43.6907 86.575L43.7372 86.5194C43.3085 84.4103 40.7209 70.0048 48.2996 62.9346C51.5133 59.9366 53.7032 58.2316 55.3015 56.9863C57.6642 55.147 58.8498 54.2242 60.5227 51.3881C62.5485 47.9574 62.7103 44.1549 60.968 40.9561C59.2412 37.7854 55.9075 35.7974 52.051 35.6385C46.6348 35.4078 44.3088 36.6818 42.0753 37.9088C41.1215 38.4356 40.217 38.9303 39.1066 39.293C35.1766 40.5802 29.8619 28.306 29.2685 26.9034C29.1652 26.6601 29.2794 26.3772 29.5233 26.2745C29.7724 26.174 30.0525 26.2865 30.1552 26.5298C32.2642 31.5146 36.4357 39.1426 38.8093 38.3793C39.8343 38.0459 40.698 37.5696 41.6133 37.0663C43.8514 35.8359 46.3713 34.4368 52.0918 34.6772C56.2892 34.8517 59.9235 37.0261 61.8122 40.4964C63.7215 43.9988 63.5539 48.1474 61.3537 51.8759C59.5844 54.8698 58.2754 55.8907 55.8937 57.7444C54.3104 58.9782 52.1394 60.6683 48.9578 63.6358C41.9065 70.2119 44.2554 84.1205 44.6709 86.2703C45.2477 86.342 47.2293 86.4711 54.0636 86.3856C55.3176 86.3615 56.4389 86.4941 57.3996 86.7179C61.3255 85.3854 61.3399 83.7039 61.3605 81.1283C61.3628 80.8041 61.3669 80.4695 61.3755 80.1246C61.3852 79.8497 61.3887 79.5794 61.3904 79.3137C61.4357 76.0696 61.4753 73.2679 69.1516 68.8392C77.5015 64.0203 82.0868 59.567 85.506 52.9542C87.4532 49.1861 88.6664 40.2536 85.2673 32.1912C82.4553 25.525 77.0149 20.7956 69.5338 18.5104C51.4341 12.9834 38.9694 20.6005 34.2774 23.4682L33.9307 23.6782C33.7109 23.8171 33.4108 23.7488 33.2691 23.5181C33.1319 23.2914 33.2042 22.9953 33.4315 22.8576L33.7746 22.6475C38.1103 19.9996 51.301 11.9389 69.8155 17.5905C77.5784 19.9623 83.2283 24.8822 86.1545 31.8181C89.8727 40.6353 88.2538 49.7324 86.3588 53.3949C82.8478 60.188 78.1603 64.7509 69.6336 69.6708C62.4303 73.8263 62.3964 76.2538 62.3534 79.3269C62.3493 79.5978 62.3453 79.8732 62.3384 80.1521C62.3264 80.4913 62.3252 80.819 62.3235 81.1364C62.3029 83.592 62.2868 85.6339 58.8578 87.1701C61.4208 88.1853 62.661 89.9632 63.2366 91.189C64.6701 94.2426 64.0985 98.215 61.8495 100.851C60.0997 102.897 57.0145 104.084 54.0051 104.084Z" fill="#393536"/>
</g>
</svg>
