<svg width="30" height="25" viewBox="0 0 30 25" fill="none" xmlns="http://www.w3.org/2000/svg">
<path d="M14.04 6.54336L15.96 6.54336C17.1 6.54336 18 7.44336 18 8.58336L18 16.5034C18 17.6434 18.9 18.5434 20.04 18.5434L21.96 18.5434C23.1 18.5434 24 19.4434 24 20.5834L24 22.5034C24 23.6434 24.9 24.5434 26.04 24.5434L27.96 24.5434C29.1 24.5434 30 23.6434 30 22.5034L30 20.5834C30 19.4434 29.1 18.5434 27.96 18.5434L26.04 18.5434C24.9 18.5434 24 17.6434 24 16.5034L24 8.58336C24 7.44336 23.1 6.54336 21.96 6.54336L20.04 6.54336C18.9 6.54336 18 5.64336 18 4.50336L18 2.58336C18 1.44336 17.1 0.543358 15.96 0.543358L14.04 0.543358C12.9 0.543358 12 1.44336 12 2.58336L12 4.50336C12 5.64336 11.1 6.54336 9.96 6.54336L8.04 6.54336C6.9 6.54336 6 7.44336 6 8.58336L6 16.5034C6 17.6434 5.1 18.5434 3.96 18.5434L2.04 18.5434C0.9 18.5434 -2.40904e-07 19.4434 -1.91073e-07 20.5834L-1.07147e-07 22.5034C-5.73165e-08 23.6434 0.9 24.5434 2.04 24.5434L3.96 24.5434C5.1 24.5434 6 23.6434 6 22.5034L6 20.5834C6 19.4434 6.9 18.5434 8.04 18.5434L9.96 18.5434C11.1 18.5434 12 17.6434 12 16.5034L12 8.58336C12 7.44336 12.9 6.54336 14.04 6.54336Z" fill="#191919"/>
</svg>
