<svg width="24" height="23" viewBox="0 0 24 23" fill="none" xmlns="http://www.w3.org/2000/svg">
<path d="M20.3303 4.05165C18.7767 3.35506 17.1156 2.84881 15.3789 2.56055C15.1656 2.93009 14.9164 3.42713 14.7446 3.82253C12.8985 3.55646 11.0693 3.55646 9.25716 3.82253C9.08539 3.42713 8.83055 2.93009 8.61536 2.56055C6.87681 2.84881 5.21376 3.35692 3.66019 4.05534C0.526643 8.59324 -0.322811 13.0184 0.101917 17.3808C2.18025 18.8682 4.19441 19.7717 6.17457 20.363C6.66349 19.7181 7.09953 19.0326 7.47518 18.3102C6.75975 18.0497 6.07453 17.7282 5.42707 17.3549C5.59884 17.233 5.76686 17.1055 5.92918 16.9743C9.87819 18.7444 14.1689 18.7444 18.0707 16.9743C18.235 17.1055 18.403 17.233 18.5728 17.3549C17.9235 17.73 17.2364 18.0515 16.521 18.312C16.8966 19.0326 17.3308 19.72 17.8216 20.3648C19.8036 19.7735 21.8197 18.87 23.898 17.3808C24.3964 12.3237 23.0467 7.93915 20.3303 4.05165ZM8.01318 14.698C6.82772 14.698 5.85555 13.6374 5.85555 12.3459C5.85555 11.0543 6.80696 9.99193 8.01318 9.99193C9.21942 9.99193 10.1916 11.0525 10.1708 12.3459C10.1727 13.6374 9.21942 14.698 8.01318 14.698ZM15.9867 14.698C14.8013 14.698 13.8291 13.6374 13.8291 12.3459C13.8291 11.0543 14.7805 9.99193 15.9867 9.99193C17.193 9.99193 18.1651 11.0525 18.1444 12.3459C18.1444 13.6374 17.193 14.698 15.9867 14.698Z" fill="white"/>
</svg>
