<svg width="32" height="33" viewBox="0 0 32 33" fill="none" xmlns="http://www.w3.org/2000/svg">
<path fill-rule="evenodd" clip-rule="evenodd" d="M16.6798 12.0945V14.4279C17.1537 13.6836 17.8068 13.0789 18.5753 12.673C19.3437 12.2671 20.2012 12.0739 21.0638 12.1124C25.6705 12.1124 26.6665 15.0824 26.6665 18.9461V26.8125H22.3998V19.8385C22.3998 18.1748 22.0745 16.0352 19.5625 16.0352C17.1265 16.0352 16.7105 17.8461 16.7105 19.7148V26.8125H12.4572V12.0945H16.6798ZM9.59983 8.39575C9.5993 8.83163 9.47401 9.25765 9.23967 9.6204C9.00532 9.98315 8.67235 10.2665 8.28249 10.4349C7.8928 10.6019 7.46372 10.6456 7.04987 10.5604C6.63602 10.4752 6.25611 10.2649 5.95849 9.95638C5.66031 9.64763 5.45731 9.25486 5.37502 8.82745C5.29272 8.40005 5.3348 7.95709 5.49597 7.55429C5.65715 7.15148 5.93021 6.80681 6.28082 6.56362C6.63144 6.32042 7.04395 6.18957 7.46649 6.1875C7.74732 6.1875 8.02539 6.24467 8.28474 6.35575C8.54409 6.46683 8.77962 6.62962 8.97782 6.83478C9.17603 7.03994 9.333 7.28344 9.43974 7.55131C9.54648 7.81918 9.60088 8.10615 9.59983 8.39575Z" fill="white"/>
<path d="M9.60065 12.1123H5.33398V26.8124H9.60065V12.1123Z" fill="white"/>
</svg>
