<svg width="48" height="44" viewBox="0 0 48 44" fill="none" xmlns="http://www.w3.org/2000/svg">
<path fill-rule="evenodd" clip-rule="evenodd" d="M8.00199 13.3281C8.66509 17.5047 12.0022 20.7907 16.2039 21.3767V21.8244C12.1172 22.3945 8.84848 25.5186 8.06243 29.532H7.43935C6.69887 25.7512 3.75518 22.7596 0 21.949L0 21.2522C3.8674 20.4173 6.87408 17.2692 7.4998 13.3281H8.00199Z" fill="#DFCDF2"/>
<path fill-rule="evenodd" clip-rule="evenodd" d="M23.26 1.30518C23.26 0.727815 23.7281 0.259766 24.3054 0.259766H27.9644C28.5418 0.259766 29.0098 0.727813 29.0098 1.30518V14.4882L38.3311 5.16691C38.7393 4.75866 39.4012 4.75866 39.8095 5.16692L42.3968 7.75418C42.805 8.16244 42.805 8.82436 42.3968 9.23262L33.0756 18.5538H46.2583C46.8357 18.5538 47.3038 19.0219 47.3038 19.5992V23.2582C47.3038 23.8355 46.8357 24.3036 46.2583 24.3036H33.0753L42.3984 33.6266C42.8066 34.0349 42.8066 34.6968 42.3984 35.1051L39.8111 37.6923C39.4028 38.1006 38.7409 38.1006 38.3327 37.6923L29.0098 28.3694V41.5536C29.0098 42.1309 28.5418 42.599 27.9644 42.599H24.3054C23.7281 42.599 23.26 42.1309 23.26 41.5536V28.1476L13.8947 37.513C13.4864 37.9213 12.8245 37.9213 12.4162 37.513L9.82898 34.9257C9.42073 34.5175 9.42073 33.8556 9.82898 33.4473L19.0003 24.2759C20.6334 22.6429 20.6334 19.9952 19.0003 18.3622L9.7144 9.07625C9.30614 8.66799 9.30614 8.00607 9.7144 7.59781L12.3017 5.01055C12.7099 4.60229 13.3718 4.60229 13.7801 5.01055L23.26 14.4905V1.30518Z" fill="white"/>
</svg>
