<svg width="23" height="22" viewBox="0 0 23 22" fill="none" xmlns="http://www.w3.org/2000/svg">
<path fill-rule="evenodd" clip-rule="evenodd" d="M7.69746 22H0.13771V21.1484C0.13771 20.7565 0.446041 20.4387 0.826358 20.4387H0.964068V19.5871C0.964068 19.1952 1.27237 18.8774 1.65268 18.8774V6.24515H0.895213L0 3.12256H3.99402V0H19.006V3.12256H23L22.1048 6.24515H21.3473V18.8774C21.7276 18.8774 22.0359 19.1952 22.0359 19.5871V20.4387H22.1736C22.554 20.4387 22.8623 20.7565 22.8623 21.1484V22H15.311V21.1484C15.311 20.7565 15.6194 20.4387 15.9997 20.4387H16.1374V19.5871C16.1374 19.2033 16.433 18.8907 16.8024 18.8779V11.9226C16.5588 9.13742 14.2659 6.95482 11.5 6.95482C8.73407 6.95482 6.44117 9.13742 6.19761 11.9226V18.8776C6.57092 18.8859 6.8711 19.2004 6.8711 19.5871V20.0129V20.4387H7.00881C7.38913 20.4387 7.69746 20.7565 7.69746 21.1484V22Z" fill="white"/>
</svg>
