<svg width="23" height="20" viewBox="0 0 23 20" fill="none" xmlns="http://www.w3.org/2000/svg">
<g clip-path="url(#clip0_204_72)">
<path d="M22.9545 0.430402C22.8722 0.17668 22.7742 0.107784 22.6203 0.0461755C22.2841 -0.0883037 21.7149 0.113746 21.7149 0.113746C21.7149 0.113746 1.56241 7.74925 0.41138 8.59455C0.163205 8.77672 0.0802701 8.88205 0.0394311 9.0066C-0.159738 9.60877 0.460387 9.87376 0.460387 9.87376L5.65448 11.6578C5.65448 11.6578 5.848 11.6876 5.91711 11.6419C7.09893 10.8549 17.805 3.72812 18.4233 3.48898C18.5207 3.45784 18.5923 3.49295 18.5734 3.56383C18.3259 4.47803 9.02716 13.1914 9.02716 13.1914C9.02716 13.1914 8.99009 13.2357 8.96747 13.2914L8.95679 13.2848L8.47238 18.7156C8.47238 18.7156 8.26944 20.379 9.84771 18.7156C10.9592 17.5437 12.0379 16.56 12.5776 16.0817C14.3639 17.3814 16.2865 18.8189 17.1152 19.5708C17.5317 19.9491 17.8804 20.01 18.1676 19.9988C18.9548 19.9676 19.1747 19.0561 19.1747 19.0561C19.1747 19.0561 22.8471 3.47639 22.9696 1.38898C22.9815 1.18494 22.9985 1.05444 22.9998 0.913997C23.0023 0.718572 22.9847 0.522484 22.9545 0.430402Z" fill="white"/>
</g>
<defs>
<clipPath id="clip0_204_72">
<rect width="23" height="20" fill="white"/>
</clipPath>
</defs>
</svg>
