<svg width="197" height="24" viewBox="0 0 197 24" fill="none" xmlns="http://www.w3.org/2000/svg">
<path d="M187.815 16.9145C190.861 16.9145 193.343 14.6133 193.343 11.7931C193.343 8.95034 190.861 6.67164 187.815 6.67164C184.747 6.67164 182.265 8.95034 182.265 11.7931C182.265 14.6133 184.747 16.9145 187.815 16.9145ZM179.49 11.7705C179.49 7.41616 183.213 3.87402 187.815 3.87402C192.395 3.87402 196.118 7.41616 196.118 11.7705C196.118 16.1474 192.395 19.667 187.815 19.667C183.213 19.667 179.49 16.1474 179.49 11.7705Z" fill="black"/>
<path d="M169.705 13.1697H175.142L172.435 6.67202L169.705 13.1697ZM166.975 19.6674H164.109L169.456 6.67202V6.64946L169.75 5.95006L170.607 3.89697H174.239L175.097 5.95006L175.413 6.67202H175.39L180.737 19.6674H177.872L176.293 15.9448H168.531L166.975 19.6674Z" fill="black"/>
<path d="M157.422 16.9145C160.242 16.9145 162.543 14.5907 162.543 11.7705C162.543 8.9729 160.242 6.67164 157.422 6.67164H153.857V16.9145H157.422ZM151.082 3.87402H157.422C161.776 3.87402 165.318 7.43872 165.318 11.7705C165.318 16.1249 161.776 19.667 157.422 19.667H151.082V3.87402Z" fill="black"/>
<path d="M128.463 15.0422C128.463 14.8843 128.463 14.7264 128.485 14.5684H131.283C131.261 14.7038 131.238 14.8843 131.238 15.0422C131.238 17.2307 139.924 17.8398 139.924 15.0422C139.924 10.6202 128.463 16.441 128.463 8.52197C128.463 2.00172 142.699 2.61088 142.699 8.52197C142.699 8.6799 142.699 8.86039 142.677 8.99576H139.856C139.902 8.86039 139.924 8.6799 139.924 8.52197C139.924 6.33351 131.238 5.72435 131.238 8.52197C131.238 12.944 142.699 7.12316 142.699 15.0422C142.699 21.5625 128.463 20.9533 128.463 15.0422Z" fill="black"/>
<path d="M120.171 16.9145C123.217 16.9145 125.698 14.6133 125.698 11.7931C125.698 8.95034 123.217 6.67164 120.171 6.67164C117.103 6.67164 114.621 8.95034 114.621 11.7931C114.621 14.6133 117.103 16.9145 120.171 16.9145ZM111.846 11.7705C111.846 7.41616 115.568 3.87402 120.171 3.87402C124.751 3.87402 128.473 7.41616 128.473 11.7705C128.473 16.1474 124.751 19.667 120.171 19.667C115.568 19.667 111.846 16.1474 111.846 11.7705Z" fill="black"/>
<path d="M100.578 10.3943H107.391C108.429 10.3943 109.264 9.5595 109.264 8.52167C109.264 7.50641 108.429 6.67164 107.391 6.67164H100.578V10.3943ZM97.8027 3.87402H107.391C109.941 3.87402 112.039 5.97223 112.039 8.52167C112.039 11.0937 109.941 13.1693 107.391 13.1693H106.489L112.039 19.667H108.452L102.902 13.1693H100.578V19.667H97.8027V3.87402Z" fill="black"/>
<path d="M86.0348 10.3943H92.8484C93.8862 10.3943 94.721 9.5595 94.721 8.52167C94.721 7.50641 93.8862 6.67164 92.8484 6.67164H86.0348V10.3943ZM83.2598 3.87402H92.8484C95.3978 3.87402 97.496 5.97223 97.496 8.52167C97.496 11.0937 95.4204 13.1693 92.8484 13.1693H86.0348V19.667H83.2598V3.87402Z" fill="black"/>
<path d="M61.9102 3.87402H67.2346C67.2572 9.01802 69.4908 13.1693 71.9951 13.1693C74.4994 13.1693 76.7556 9.01802 76.7781 3.87402H82.1026V19.667H79.3276V6.6942C78.5154 11.9961 75.447 15.9444 71.9951 15.9444C68.5432 15.9444 65.4974 11.9961 64.6852 6.6942V19.667H61.9102V3.87402Z" fill="black"/>
<path d="M50.4136 13.1697H55.8509L53.1435 6.67202L50.4136 13.1697ZM47.6837 19.6674H44.8184L50.1654 6.67202V6.64946L50.4587 5.95006L51.316 3.89697H54.9484L55.8058 5.95006L56.1216 6.67202H56.0991L61.4461 19.6674H58.5808L57.0015 15.9448H49.2404L47.6837 19.6674Z" fill="black"/>
<path d="M32.3848 3.87402H35.1598V16.9145H44.7484V19.667H32.3848V3.87402Z" fill="black"/>
<path fill-rule="evenodd" clip-rule="evenodd" d="M4.42624 7.37354C4.79279 9.68442 6.63912 11.5026 8.96386 11.8268V12.0744C6.7033 12.3896 4.8951 14.1175 4.45996 16.3374H4.11534C3.70544 14.2462 2.07711 12.5917 0 12.1433L0 11.7579C2.13972 11.296 3.80318 9.5541 4.14906 7.37354H4.42624Z" fill="#DFCDF2"/>
<path fill-rule="evenodd" clip-rule="evenodd" d="M12.8683 0.722845C12.8683 0.403452 13.1272 0.144531 13.4466 0.144531H15.4707C15.7901 0.144531 16.049 0.403451 16.049 0.722844V8.01558L21.2058 2.85881C21.4316 2.63296 21.7978 2.63296 22.0236 2.85881L23.4549 4.29006C23.6807 4.5159 23.6807 4.88207 23.4549 5.10792L18.2978 10.265H25.5912C25.9106 10.265 26.1695 10.5239 26.1695 10.8433V12.8674C26.1695 13.1868 25.9106 13.4457 25.5912 13.4457H18.2985L23.4552 18.6025C23.6811 18.8284 23.6811 19.1945 23.4552 19.4204L22.024 20.8516C21.7981 21.0775 21.432 21.0775 21.2061 20.8516L16.049 15.6945V22.9879C16.049 23.3073 15.7901 23.5662 15.4707 23.5662H13.4466C13.1272 23.5662 12.8683 23.3073 12.8683 22.9879V15.5717L7.68771 20.7523C7.46187 20.9781 7.0957 20.9781 6.86986 20.7523L5.4386 19.321C5.21276 19.0952 5.21276 18.729 5.4386 18.5031L10.512 13.4297C11.4154 12.5263 11.4154 11.0617 10.512 10.1583L5.37446 5.0207C5.14862 4.79485 5.14862 4.42868 5.37446 4.20284L6.80571 2.77159C7.03156 2.54574 7.39773 2.54574 7.62357 2.77159L12.8683 8.01631V0.722845Z" fill="black"/>
</svg>
