<svg width="27" height="24" viewBox="0 0 27 24" fill="none" xmlns="http://www.w3.org/2000/svg">
<path fill-rule="evenodd" clip-rule="evenodd" d="M0 11.7578C2.13932 11.2957 3.80238 9.55387 4.14815 7.37354H4.42567C4.79212 9.68475 6.63877 11.5032 8.96386 11.8272V12.0745C6.70312 12.3895 4.89471 14.1174 4.45947 16.3374H4.11436C3.70446 14.2466 2.0766 12.5923 0 12.1437L0 11.7578Z" fill="#DFCDF2"/>
<path fill-rule="evenodd" clip-rule="evenodd" d="M12.8698 0.722846C12.8698 0.403452 13.1287 0.144531 13.4481 0.144531H15.4722C15.7916 0.144531 16.0506 0.403451 16.0506 0.722844V8.01508L21.207 2.85864C21.4328 2.63279 21.799 2.63279 22.0249 2.85864L23.4561 4.28989C23.6819 4.51573 23.6819 4.8819 23.4561 5.10775L18.2987 10.2651H25.5923C25.9117 10.2651 26.1706 10.5241 26.1706 10.8434V12.8675C26.1706 13.1869 25.9117 13.4459 25.5923 13.4459H18.3001L23.4568 18.6025C23.6826 18.8284 23.6826 19.1945 23.4568 19.4204L22.0255 20.8516C21.7997 21.0775 21.4335 21.0775 21.2076 20.8516L16.0506 15.6945V22.9879C16.0506 23.3073 15.7916 23.5662 15.4722 23.5662H13.4481C13.1287 23.5662 12.8698 23.3073 12.8698 22.9879V15.5713L7.68892 20.7522C7.46307 20.978 7.0969 20.978 6.87106 20.7522L5.43981 19.3209C5.21396 19.0951 5.21396 18.7289 5.43981 18.5031L10.5136 13.4293C11.4169 12.5259 11.4169 11.0613 10.5136 10.1579L5.37642 5.02074C5.15057 4.7949 5.15057 4.42873 5.37642 4.20289L6.80767 2.77163C7.03351 2.54579 7.39968 2.54579 7.62553 2.77163L12.8698 8.01594V0.722846Z" fill="black"/>
</svg>
