<svg width="15" height="15" viewBox="0 0 15 15" fill="none" xmlns="http://www.w3.org/2000/svg">
<path d="M5.65501 0.415278C5.66883 0.111242 6.16911 -0.0103686 6.31837 0.254972C7.02041 1.49876 8.21444 3.32573 9.56879 4.15769C10.9231 4.98687 13.0956 5.22458 14.5218 5.28538C14.8258 5.2992 14.9447 5.79948 14.6794 5.94874C13.4356 6.65078 11.6114 7.84482 10.7794 9.19916C9.94745 10.5535 9.71251 12.726 9.6517 14.1522C9.63788 14.4562 9.13484 14.5751 8.98835 14.3097C8.28631 13.0659 7.09227 11.2417 5.73517 10.4098C4.38083 9.57782 2.20835 9.34288 0.784911 9.28207C0.480875 9.26825 0.359259 8.76521 0.624599 8.61872C1.86838 7.91668 3.69536 6.72264 4.52732 5.36554C5.35651 4.0112 5.59421 1.83872 5.65501 0.415278Z" fill="black"/>
</svg>
