<svg width="1366" height="625" viewBox="0 0 1366 625" fill="none" xmlns="http://www.w3.org/2000/svg">
<path fill-rule="evenodd" clip-rule="evenodd" d="M1331.43 251.487L1331.24 250.877L1328.37 251.302L1328.55 251.912L1331.43 251.487ZM1128.17 281.545L1131.05 281.12L1130.86 280.51L1127.98 280.935L1128.17 281.545ZM1240.15 264.348L1237.27 264.773L1237.46 265.384L1240.35 264.958L1240.15 264.348ZM1231.4 266.283L1234.28 265.858L1234.08 265.248L1231.21 265.673L1231.4 266.283ZM1325.36 252.387L1325.17 251.777L1322.29 252.202L1322.48 252.812L1325.36 252.387ZM1319.29 253.283L1319.1 252.672L1316.22 253.097L1316.4 253.708L1319.29 253.283ZM1134.24 280.65L1137.13 280.225L1136.93 279.614L1134.05 280.039L1134.24 280.65ZM1334.43 250.402L1334.62 251.013L1337.5 250.587L1337.31 249.977L1334.43 250.402ZM1109.95 284.245L1112.84 283.815L1112.65 283.205L1109.77 283.634L1109.95 284.245ZM1340.5 249.511L1340.69 250.122L1343.57 249.692L1343.38 249.082L1340.5 249.511ZM1215.87 267.938L1212.99 268.364L1213.18 268.974L1216.06 268.549L1215.87 267.938ZM1279.97 259.098L1282.86 258.673L1282.67 258.062L1279.78 258.487L1279.97 259.098ZM1121.9 281.835L1122.1 282.445L1124.98 282.02L1124.79 281.41L1121.9 281.835ZM1221.94 267.039L1219.06 267.464L1219.25 268.074L1222.13 267.649L1221.94 267.039ZM1225.32 267.183L1228.21 266.754L1228.02 266.143L1225.13 266.573L1225.32 267.183ZM1140.31 279.75L1143.2 279.325L1143.01 278.714L1140.13 279.139L1140.31 279.75ZM1364.98 246.527L1366.09 246.364V245.722L1364.79 245.916L1364.98 246.527ZM1191.77 272.144L1191.59 271.529L1188.7 271.959L1188.89 272.569L1191.77 272.144ZM1185.71 273.035L1185.51 272.424L1182.63 272.849L1182.82 273.464L1185.71 273.035ZM1146.38 278.855L1149.27 278.425L1149.08 277.815L1146.2 278.244L1146.38 278.855ZM1173.37 274.224L1170.48 274.649L1170.67 275.26L1173.56 274.835L1173.37 274.224ZM1179.44 273.324L1176.56 273.749L1176.75 274.36L1179.63 273.935L1179.44 273.324ZM1197.85 271.244L1197.66 270.634L1194.78 271.059L1194.97 271.669L1197.85 271.244ZM1292.12 257.303L1295 256.878L1294.82 256.267L1291.93 256.692L1292.12 257.303ZM1298.19 256.407L1301.07 255.978L1300.88 255.367L1297.99 255.792L1298.19 256.407ZM1307.14 255.078L1306.95 254.467L1304.06 254.897L1304.26 255.507L1307.14 255.078ZM1313.21 254.182L1313.02 253.572L1310.14 253.997L1310.33 254.608L1313.21 254.182ZM1152.46 277.959L1155.34 277.534L1155.16 276.924L1152.27 277.349L1152.46 277.959ZM1286.05 258.198L1288.93 257.773L1288.74 257.162L1285.86 257.588L1286.05 258.198ZM1209.99 269.449L1209.8 268.838L1206.92 269.263L1207.1 269.874L1209.99 269.449ZM1203.92 270.344L1203.73 269.738L1200.85 270.163L1201.04 270.774L1203.92 270.344ZM1164.61 276.159L1167.48 275.734L1167.29 275.124L1164.41 275.549L1164.61 276.159ZM1158.53 277.059L1161.42 276.634L1161.23 276.024L1158.34 276.449L1158.53 277.059ZM1106.77 284.711L1106.58 284.1L1103.7 284.525L1103.88 285.14L1106.77 284.711ZM1352.83 248.322L1355.72 247.897L1355.53 247.286L1352.65 247.711L1352.83 248.322ZM1118.91 282.92L1118.72 282.309L1115.84 282.734L1116.02 283.345L1118.91 282.92ZM1100.69 285.611L1100.5 285L1097.62 285.425L1097.81 286.036L1100.69 285.611ZM1255.68 262.688L1258.56 262.263L1258.37 261.653L1255.49 262.078L1255.68 262.688ZM1267.83 260.898L1270.71 260.473L1270.52 259.862L1267.64 260.287L1267.83 260.898ZM1249.6 263.584L1252.5 263.159L1252.3 262.548L1249.42 262.973L1249.6 263.584ZM1082.47 288.306L1082.29 287.695L1079.41 288.12L1079.59 288.731L1082.47 288.306ZM1088.55 287.406L1088.35 286.795L1085.48 287.22L1085.67 287.831L1088.55 287.406ZM1273.9 259.998L1276.79 259.573L1276.59 258.962L1273.71 259.387L1273.9 259.998ZM1346.57 248.611L1346.76 249.222L1349.65 248.797L1349.45 248.186L1346.57 248.611ZM1358.71 246.812L1358.91 247.422L1361.79 246.997L1361.6 246.386L1358.71 246.812ZM1094.62 286.51L1094.43 285.9L1091.55 286.325L1091.74 286.935L1094.62 286.51ZM1261.75 261.793L1264.64 261.363L1264.45 260.753L1261.57 261.183L1261.75 261.793ZM1243.54 264.484L1246.43 264.059L1246.23 263.448L1243.35 263.873L1243.54 264.484ZM892.538 196.129L892.216 195.541L889.462 196.273L889.798 196.857L892.538 196.129ZM1153.22 126.883L1152.89 126.295L1150.14 127.028L1150.47 127.611L1153.22 126.883ZM1191.01 116.84L1193.76 116.107L1193.43 115.524L1190.69 116.252L1191.01 116.84ZM1147.42 128.42L1147.09 127.837L1144.35 128.565L1144.68 129.153L1147.42 128.42ZM915.72 189.97L915.391 189.386L912.637 190.119L912.966 190.698L915.72 189.97ZM1069.37 149.154L1072.12 148.421L1071.79 147.838L1069.04 148.566L1069.37 149.154ZM909.923 191.507L909.594 190.928L906.846 191.656L907.176 192.24L909.923 191.507ZM1063.57 150.691L1066.32 149.963L1066 149.38L1063.24 150.113L1063.57 150.691ZM904.126 193.054L903.796 192.47L901.056 193.198L901.379 193.782L904.126 193.054ZM898.335 194.591L898.006 194.003L895.266 194.736L895.588 195.319L898.335 194.591ZM1176.38 120.724L1176.05 120.141L1173.31 120.873L1173.64 121.452L1176.38 120.724ZM1086.74 144.537L1089.49 143.809L1089.16 143.221L1086.41 143.954L1086.74 144.537ZM1182.18 119.186L1181.85 118.603L1179.1 119.331L1179.43 119.915L1182.18 119.186ZM1104.12 139.92L1106.87 139.192L1106.54 138.609L1103.8 139.341L1104.12 139.92ZM1092.54 142.999L1095.28 142.267L1094.96 141.688L1092.21 142.416L1092.54 142.999ZM1184.89 117.794L1185.22 118.382L1187.98 117.649L1187.64 117.066L1184.89 117.794ZM1080.96 146.079L1083.7 145.346L1083.37 144.763L1080.63 145.496L1080.96 146.079ZM1075.17 147.616L1077.91 146.884L1077.58 146.301L1074.84 147.029L1075.17 147.616ZM918.427 188.577L918.75 189.16L921.504 188.432L921.174 187.849L918.427 188.577ZM1164.81 123.799L1164.48 123.22L1161.73 123.948L1162.06 124.532L1164.81 123.799ZM1159.01 125.341L1158.68 124.758L1155.94 125.486L1156.26 126.069L1159.01 125.341ZM1170.6 122.261L1170.27 121.678L1167.52 122.411L1167.85 122.994L1170.6 122.261ZM947.716 181.468L950.469 180.74L950.14 180.161L947.386 180.889L947.716 181.468ZM1031.57 159.193L1031.24 158.609L1028.49 159.347L1028.82 159.925L1031.57 159.193ZM1098.33 141.457L1101.08 140.729L1100.75 140.151L1098 140.879L1098.33 141.457ZM1057.78 152.233L1060.53 151.501L1060.21 150.922L1057.45 151.65L1057.78 152.233ZM1043.15 156.118L1042.82 155.535L1040.08 156.263L1040.41 156.846L1043.15 156.118ZM1130.05 133.033L1129.72 132.454L1126.97 133.182L1127.3 133.765L1130.05 133.033ZM982.472 172.239L985.226 171.506L984.896 170.927L982.149 171.656L982.472 172.239ZM1025.78 160.73L1025.45 160.147L1022.7 160.88L1023.03 161.458L1025.78 160.73ZM991.023 169.964L990.7 169.381L987.946 170.118L988.276 170.697L991.023 169.964ZM996.813 168.427L996.484 167.839L993.73 168.572L994.066 169.155L996.813 168.427ZM1008.39 165.352L1008.06 164.768L1005.32 165.497L1005.65 166.08L1008.39 165.352ZM1124.26 134.575L1123.92 133.992L1121.18 134.72L1121.5 135.303L1124.26 134.575ZM1019.99 162.272L1019.66 161.694L1016.91 162.422L1017.23 163.005L1019.99 162.272ZM1002.6 166.889L1002.27 166.306L999.521 167.034L999.857 167.617L1002.6 166.889ZM1118.47 136.112L1118.13 135.529L1115.38 136.257L1115.71 136.84L1118.47 136.112ZM976.688 173.776L979.435 173.048L979.106 172.465L976.359 173.198L976.688 173.776ZM941.925 183.01L944.679 182.278L944.343 181.694L941.596 182.427L941.925 183.01ZM936.141 184.548L938.882 183.82L938.553 183.236L935.812 183.964L936.141 184.548ZM1051.67 153.188L1051.99 153.771L1054.74 153.038L1054.41 152.46L1051.67 153.188ZM1141.63 129.958L1141.3 129.37L1138.55 130.103L1138.89 130.681L1141.63 129.958ZM1014.2 163.814L1013.86 163.231L1011.11 163.959L1011.44 164.542L1014.2 163.814ZM924.554 187.623L927.294 186.895L926.972 186.311L924.218 187.044L924.554 187.623ZM930.344 186.085L933.091 185.357L932.762 184.774L930.008 185.502L930.344 186.085ZM1109.92 138.382L1112.66 137.65L1112.33 137.067L1109.59 137.795L1109.92 138.382ZM953.513 179.931L956.26 179.203L955.937 178.615L953.184 179.352L953.513 179.931ZM965.1 176.851L967.847 176.123L967.518 175.54L964.778 176.268L965.1 176.851ZM1048.95 154.58L1048.62 153.997L1045.87 154.725L1046.2 155.308L1048.95 154.58ZM970.898 175.314L973.638 174.586L973.315 174.002L970.568 174.73L970.898 175.314ZM959.31 178.389L962.05 177.661L961.728 177.073L958.974 177.805L959.31 178.389ZM1135.84 131.495L1135.51 130.917L1132.75 131.649L1133.08 132.233L1135.84 131.495ZM1037.36 157.655L1037.03 157.072L1034.28 157.8L1034.61 158.383L1037.36 157.655ZM1208.4 112.218L1211.14 111.49L1210.81 110.911L1208.06 111.639L1208.4 112.218ZM1243.16 102.984L1245.9 102.256L1245.57 101.677L1242.82 102.405L1243.16 102.984ZM1214.19 110.681L1216.93 109.953L1216.61 109.369L1213.86 110.102L1214.19 110.681ZM1237.35 104.526L1240.11 103.794L1239.78 103.215L1237.03 103.943L1237.35 104.526ZM1344.38 76.1006L1344.05 75.5173L1341.3 76.2453L1341.63 76.8287L1344.38 76.1006ZM1315.41 83.7926L1315.08 83.2138L1312.33 83.9418L1312.65 84.5252L1315.41 83.7926ZM1350.16 74.5541L1349.84 73.9753L1347.09 74.7033L1347.42 75.2912L1350.16 74.5541ZM1202.6 113.765L1205.35 113.032L1205.02 112.453L1202.27 113.181L1202.6 113.765ZM1257.15 98.5977L1254.41 99.3348L1254.74 99.9136L1257.48 99.1856L1257.15 98.5977ZM1248.95 101.447L1251.69 100.719L1251.36 100.135L1248.61 100.868L1248.95 101.447ZM1231.56 106.068L1234.32 105.336L1233.99 104.752L1231.23 105.48L1231.56 106.068ZM1321.21 82.2506L1320.88 81.6718L1318.12 82.3998L1318.46 82.9786L1321.21 82.2506ZM1309.62 85.3346L1309.29 84.7513L1306.55 85.4793L1306.87 86.0627L1309.62 85.3346ZM1327 80.7131L1326.67 80.1298L1323.92 80.8623L1324.25 81.4412L1327 80.7131ZM1280.65 93.0221L1280.32 92.4432L1277.58 93.1713L1277.91 93.7546L1280.65 93.0221ZM1338.59 77.6381L1338.26 77.0548L1335.51 77.7828L1335.84 78.3707L1338.59 77.6381ZM1286.45 91.4846L1286.12 90.9012L1283.37 91.6338L1283.7 92.2171L1286.45 91.4846ZM1219.98 109.143L1222.73 108.415L1222.4 107.832L1219.66 108.56L1219.98 109.143ZM1332.79 79.1756L1332.46 78.5923L1329.72 79.3203L1330.05 79.9037L1332.79 79.1756ZM1225.77 107.606L1228.52 106.878L1228.18 106.294L1225.44 107.022L1225.77 107.606ZM1364.47 70.0954L1364.8 70.6742L1366.09 70.3305V69.6568L1364.47 70.0954ZM1269.08 96.1061L1268.75 95.5182L1265.99 96.2508L1266.32 96.8341L1269.08 96.1061ZM1292.24 89.9471L1291.91 89.3637L1289.17 90.0963L1289.49 90.6796L1292.24 89.9471ZM1274.87 94.5641L1274.54 93.9807L1271.79 94.7088L1272.11 95.2921L1274.87 94.5641ZM1303.83 86.8721L1303.5 86.2888L1300.75 87.0213L1301.08 87.6047L1303.83 86.8721ZM1355.96 73.0166L1355.63 72.4378L1352.88 73.1659L1353.21 73.7537L1355.96 73.0166ZM1361.75 71.4837L1361.42 70.9003L1358.68 71.6329L1359 72.2117L1361.75 71.4837ZM1298.04 88.4096L1297.71 87.8263L1294.96 88.5588L1295.29 89.1422L1298.04 88.4096ZM1263.28 97.6436L1262.94 97.0602L1260.2 97.7883L1260.53 98.3716L1263.28 97.6436ZM1196.81 115.302L1199.56 114.57L1199.23 113.986L1196.48 114.719L1196.81 115.302ZM1127.46 232.413L1124.62 232.943L1124.86 233.544L1127.7 233.015L1127.46 232.413ZM1082.66 240.775L1082.89 241.372L1085.74 240.842L1085.51 240.241L1082.66 240.775ZM1337.49 193.877L1337.25 193.271L1334.41 193.8L1334.64 194.401L1337.49 193.877ZM1094.65 238.536L1094.88 239.138L1097.73 238.609L1097.49 238.007L1094.65 238.536ZM1274.7 205.589L1277.54 205.06L1277.31 204.458L1274.46 204.987L1274.7 205.589ZM1241.34 211.164L1238.5 211.694L1238.74 212.295L1241.58 211.766L1241.34 211.164ZM1229.35 213.403L1226.51 213.932L1226.75 214.533L1229.6 214.004L1229.35 213.403ZM1088.65 239.658L1088.89 240.255L1091.73 239.726L1091.5 239.124L1088.65 239.658ZM1361.46 189.404L1361.22 188.803L1358.38 189.332L1358.62 189.934L1361.46 189.404ZM1235.35 212.286L1232.51 212.815L1232.74 213.416L1235.59 212.887L1235.35 212.286ZM1331.49 194.998L1331.25 194.397L1328.41 194.926L1328.64 195.527L1331.49 194.998ZM1280.69 204.472L1283.54 203.943L1283.3 203.341L1280.45 203.87L1280.69 204.472ZM1268.7 206.706L1271.55 206.177L1271.32 205.575L1268.47 206.104L1268.7 206.706ZM1109.71 236.37L1109.47 235.769L1106.63 236.302L1106.87 236.899L1109.71 236.37ZM1121.47 233.53L1118.62 234.059L1118.86 234.661L1121.7 234.132L1121.47 233.53ZM1253.33 208.931L1250.49 209.46L1250.73 210.061L1253.58 209.532L1253.33 208.931ZM1265.32 206.692L1262.48 207.226L1262.71 207.827L1265.56 207.298L1265.32 206.692ZM1259.33 207.814L1256.48 208.343L1256.72 208.944L1259.57 208.415L1259.33 207.814ZM1103.72 237.487L1103.48 236.886L1100.64 237.419L1100.88 238.016L1103.72 237.487ZM1355.47 190.521L1355.23 189.92L1352.38 190.449L1352.63 191.05L1355.47 190.521ZM1364.61 188.817L1366.09 188.536V187.89L1364.37 188.211L1364.61 188.817ZM1247.34 210.048L1244.49 210.577L1244.72 211.178L1247.57 210.649L1247.34 210.048ZM1115.71 235.253L1115.48 234.652L1112.63 235.185L1112.87 235.782L1115.71 235.253ZM1343.48 192.76L1343.24 192.154L1340.39 192.687L1340.64 193.289L1343.48 192.76ZM1076.66 241.892L1076.9 242.488L1079.74 241.959L1079.5 241.358L1076.66 241.892ZM1349.47 191.643L1349.24 191.041L1346.4 191.571L1346.63 192.172L1349.47 191.643ZM1301.52 200.587L1301.29 199.986L1298.44 200.515L1298.68 201.117L1301.52 200.587ZM1163.66 226.304L1163.43 225.703L1160.58 226.232L1160.82 226.833L1163.66 226.304ZM1307.52 199.47L1307.28 198.869L1304.43 199.398L1304.68 200L1307.52 199.47ZM1157.68 227.421L1157.43 226.82L1154.59 227.349L1154.82 227.95L1157.68 227.421ZM1151.43 227.941L1148.58 228.47L1148.83 229.072L1151.67 228.543L1151.43 227.941ZM1169.66 225.187L1169.42 224.586L1166.57 225.115L1166.81 225.716L1169.66 225.187ZM1313.51 198.349L1313.27 197.748L1310.42 198.277L1310.67 198.883L1313.51 198.349ZM1202.78 219.006L1205.63 218.477L1205.38 217.875L1202.54 218.404L1202.78 219.006ZM1196.54 219.521L1196.78 220.123L1199.62 219.594L1199.39 218.992L1196.54 219.521ZM1133.45 231.292L1130.61 231.821L1130.84 232.422L1133.7 231.893L1133.45 231.292ZM1295.53 201.704L1295.3 201.103L1292.45 201.632L1292.68 202.233L1295.53 201.704ZM1208.77 217.889L1211.61 217.36L1211.38 216.758L1208.54 217.287L1208.77 217.889ZM1181.65 222.949L1181.4 222.347L1178.56 222.876L1178.79 223.478L1181.65 222.949ZM1175.65 224.07L1175.42 223.469L1172.56 223.998L1172.81 224.599L1175.65 224.07ZM1187.64 221.832L1187.4 221.23L1184.55 221.76L1184.79 222.361L1187.64 221.832ZM1289.29 202.22L1286.45 202.749L1286.69 203.35L1289.53 202.821L1289.29 202.22ZM1190.79 221.244L1193.63 220.715L1193.39 220.114L1190.55 220.643L1190.79 221.244ZM1145.44 229.054L1142.6 229.583L1142.83 230.184L1145.68 229.655L1145.44 229.054ZM1214.76 216.772L1217.61 216.243L1217.37 215.641L1214.53 216.17L1214.76 216.772ZM1139.44 230.175L1136.6 230.704L1136.84 231.306L1139.68 230.776L1139.44 230.175ZM1319.51 197.232L1319.27 196.631L1316.42 197.16L1316.66 197.761L1319.51 197.232ZM1325.49 196.115L1325.26 195.514L1322.41 196.043L1322.65 196.644L1325.49 196.115ZM1220.76 215.655L1223.6 215.121L1223.37 214.52L1220.52 215.049L1220.76 215.655ZM1176.69 29.9127L1176.29 29.352L1173.66 30.2383L1174.05 30.7945L1176.69 29.9127ZM1232.23 11.2955L1231.83 10.7393L1229.19 11.6256L1229.59 12.1818L1232.23 11.2955ZM1226.67 13.1586L1226.27 12.5979L1223.64 13.4842L1224.03 14.0404L1226.67 13.1586ZM1265.55 0.126126L1265.53 0.103516H1263.55L1262.52 0.456233L1262.92 1.01244L1265.55 0.126126ZM1171.14 31.7712L1170.74 31.215L1168.1 32.0968L1168.51 32.6576L1171.14 31.7712ZM1110.05 52.2515L1109.65 51.6908L1107.01 52.5771L1107.41 53.1378L1110.05 52.2515ZM1132.27 44.7992L1131.86 44.243L1129.22 45.1293L1129.63 45.6855L1132.27 44.7992ZM1215.57 16.8802L1215.16 16.324L1212.53 17.2103L1212.93 17.7665L1215.57 16.8802ZM1193.35 24.328L1192.96 23.7673L1190.32 24.6536L1190.72 25.2098L1193.35 24.328ZM1182.25 28.0496L1181.84 27.4934L1179.2 28.3797L1179.61 28.9359L1182.25 28.0496ZM1104.5 54.11L1104.1 53.5538L1101.46 54.4356L1101.86 54.9964L1104.5 54.11ZM1187.8 26.1865L1187.4 25.6303L1184.76 26.5121L1185.17 27.0729L1187.8 26.1865ZM1198.9 22.4649L1198.51 21.9087L1195.87 22.795L1196.27 23.3512L1198.9 22.4649ZM1137.82 42.9406L1137.42 42.3844L1134.78 43.2662L1135.19 43.827L1137.82 42.9406ZM1154.48 37.3559L1154.08 36.7997L1151.44 37.6815L1151.84 38.2423L1154.48 37.3559ZM1248.89 5.71082L1248.49 5.15462L1245.85 6.04093L1246.25 6.59714L1248.89 5.71082ZM1221.13 15.0171L1220.72 14.4609L1218.08 15.3427L1218.49 15.9035L1221.13 15.0171ZM1210.01 18.7433L1209.61 18.1826L1206.97 19.0689L1207.38 19.6251L1210.01 18.7433ZM1143.37 41.0821L1142.97 40.5214L1140.33 41.4077L1140.73 41.9684L1143.37 41.0821ZM1121.16 48.5253L1120.76 47.9691L1118.12 48.8509L1118.52 49.4117L1121.16 48.5253ZM1148.93 39.219L1148.53 38.6628L1145.89 39.5491L1146.29 40.1053L1148.93 39.219ZM1243.33 7.57842L1242.93 7.01769L1240.29 7.90401L1240.69 8.46474L1243.33 7.57842ZM1165.59 33.6343L1165.18 33.0781L1162.55 33.9644L1162.95 34.5206L1165.59 33.6343ZM1259.99 1.9892L1259.6 1.42847L1256.96 2.31479L1257.36 2.87099L1259.99 1.9892ZM1126.71 46.6668L1126.31 46.1061L1123.67 46.9924L1124.07 47.5531L1126.71 46.6668ZM1204.47 20.6064L1204.06 20.0502L1201.42 20.9274L1201.83 21.4882L1204.47 20.6064ZM1160.03 35.4974L1159.63 34.9367L1156.99 35.823L1157.39 36.3792L1160.03 35.4974ZM1254.45 3.85227L1254.04 3.29606L1251.4 4.17786L1251.81 4.73859L1254.45 3.85227ZM1115.6 50.3884L1115.21 49.8322L1112.57 50.7185L1112.97 51.2747L1115.6 50.3884ZM1237.78 9.43697L1237.38 8.88076L1234.75 9.76256L1235.15 10.3233L1237.78 9.43697ZM965.654 100.646L965.259 100.09L962.617 100.976L963.019 101.533L965.654 100.646ZM954.547 104.368L954.152 103.812L951.51 104.693L951.912 105.254L954.547 104.368ZM960.101 102.509L959.699 101.949L957.057 102.835L957.459 103.391L960.101 102.509ZM943.434 108.094L943.039 107.533L940.404 108.42L940.799 108.98L943.434 108.094ZM948.994 106.226L948.592 105.67L945.957 106.556L946.352 107.113L948.994 106.226ZM987.874 93.1984L987.472 92.6422L984.83 93.524L985.239 94.0847L987.874 93.1984ZM982.314 95.057L981.912 94.5008L979.277 95.3871L979.679 95.9433L982.314 95.057ZM976.76 96.9246L976.359 96.3638L973.724 97.2501L974.125 97.8064L976.76 96.9246ZM971.214 98.7876L970.805 98.2314L968.17 99.1132L968.572 99.674L971.214 98.7876ZM937.894 109.953L937.492 109.396L934.85 110.278L935.252 110.839L937.894 109.953ZM993.42 91.3399L993.019 90.7791L990.384 91.6655L990.779 92.2217L993.42 91.3399ZM1098.95 55.9686L1098.55 55.4124L1095.9 56.2987L1096.31 56.8549L1098.95 55.9686ZM904.567 121.122L904.165 120.566L901.53 121.448L901.932 122.008L904.567 121.122ZM893.454 124.844L893.059 124.283L890.417 125.169L890.812 125.725L893.454 124.844ZM910.121 119.259L909.712 118.698L907.077 119.584L907.479 120.141L910.121 119.259ZM915.674 117.396L915.272 116.84L912.637 117.726L913.039 118.282L915.674 117.396ZM926.781 113.679L926.379 113.118L923.737 114.004L924.146 114.565L926.781 113.679ZM932.334 111.816L931.932 111.259L929.297 112.146L929.692 112.702L932.334 111.816ZM921.227 115.537L920.825 114.981L918.197 115.863L918.586 116.424L921.227 115.537ZM899.014 122.98L898.612 122.424L895.97 123.311L896.372 123.867L899.014 122.98ZM1071.17 65.2794L1070.78 64.7232L1068.14 65.605L1068.54 66.1658L1071.17 65.2794ZM1060.07 69.0056L1059.67 68.4449L1057.02 69.3312L1057.43 69.8919L1060.07 69.0056ZM1054.51 70.8641L1054.12 70.3079L1051.48 71.1897L1051.87 71.7505L1054.51 70.8641ZM1076.72 63.4164L1076.33 62.8556L1073.69 63.742L1074.09 64.2982L1076.72 63.4164ZM998.98 89.4768L998.579 88.9206L995.937 89.8069L996.339 90.3631L998.98 89.4768ZM1093.39 57.8317L1092.99 57.2709L1090.34 58.1573L1090.75 58.7135L1093.39 57.8317ZM1048.96 72.7227L1048.56 72.1665L1045.92 73.0528L1046.33 73.609L1048.96 72.7227ZM1087.84 59.6947L1087.44 59.1385L1084.8 60.0203L1085.2 60.5811L1087.84 59.6947ZM1082.28 61.5533L1081.88 60.9971L1079.24 61.8834L1079.64 62.4396L1082.28 61.5533ZM1065.62 67.138L1065.23 66.5818L1062.58 67.4681L1062.98 68.0243L1065.62 67.138ZM1043.4 74.5858L1043 74.025L1040.37 74.9113L1040.77 75.4676L1043.4 74.5858ZM1010.08 85.7552L1009.68 85.1944L1007.04 86.0807L1007.45 86.637L1010.08 85.7552ZM1021.19 82.0335L1020.79 81.4773L1018.15 82.3591L1018.55 82.9199L1021.19 82.0335ZM1004.53 87.6137L1004.14 87.0575L1001.5 87.9393L1001.89 88.5L1004.53 87.6137ZM1015.63 83.8921L1015.24 83.3359L1012.6 84.2222L1013 84.7784L1015.63 83.8921ZM1026.74 80.1705L1026.35 79.6097L1023.7 80.496L1024.11 81.0523L1026.74 80.1705ZM1037.86 76.4443L1037.45 75.8881L1034.82 76.7699L1035.22 77.3306L1037.86 76.4443ZM1032.3 78.3074L1031.89 77.7512L1029.26 78.6375L1029.66 79.1937L1032.3 78.3074ZM1265.76 616.781L1227.55 624.835H1230.28L1265.95 617.315H1366.09V616.767H1265.88L1265.76 616.781ZM71.2387 495.672L60.7974 487.967H55.0662L65.5141 495.672H71.2387ZM21.8187 495.672H27.5499L17.0954 487.967H11.3774L21.8187 495.672ZM42.115 495.672L31.6671 487.967H25.9359L36.3838 495.672H42.115ZM12.9847 495.672L2.53682 487.967H0.949219V491.023L7.25353 495.672H12.9847ZM69.6313 487.967L80.0726 495.672H85.8038L75.3559 487.967H69.6313ZM56.6801 495.672L46.2256 487.967H40.501L50.9489 495.672H56.6801ZM117.622 445.55L120.547 445.288L120.428 444.668L117.503 444.926L117.622 445.55ZM111.35 445.482L111.462 446.102L114.387 445.839L114.269 445.22L111.35 445.482ZM123.788 445.003L126.706 444.741L126.594 444.121L123.669 444.383L123.788 445.003ZM99.1436 447.196L102.069 446.929L101.95 446.31L99.0251 446.576L99.1436 447.196ZM169.828 440.915L169.71 440.295L166.785 440.558L166.903 441.177L169.828 440.915ZM105.303 446.644L108.228 446.387L108.109 445.767L105.184 446.025L105.303 446.644ZM139.031 443.651L138.913 443.031L135.988 443.289L136.107 443.908L139.031 443.651ZM163.669 441.462L163.557 440.843L160.632 441.105L160.751 441.724L163.669 441.462ZM145.184 443.104L145.072 442.484L142.147 442.746L142.266 443.366L145.184 443.104ZM151.35 442.556L151.232 441.932L148.313 442.195L148.425 442.814L151.35 442.556ZM132.865 444.198L132.747 443.574L129.829 443.841L129.941 444.46L132.865 444.198ZM157.51 442.009L157.391 441.385L154.466 441.647L154.585 442.267L157.51 442.009ZM3.39321 455.064L0.949219 455.281V455.91L3.51179 455.684L3.39321 455.064ZM40.4615 452.401L40.3495 451.781L37.4312 452.039L37.5498 452.659L40.4615 452.401ZM92.9777 447.739L95.9026 447.476L95.784 446.857L92.8657 447.119L92.9777 447.739ZM34.1901 452.328L31.2653 452.595L31.3838 453.215L34.3087 452.948L34.1901 452.328ZM21.878 453.423L18.9465 453.685L19.0651 454.305L21.9834 454.042L21.878 453.423ZM175.994 440.363L175.876 439.744L172.944 440.006L173.063 440.625L175.994 440.363ZM52.7935 451.307L52.6749 450.687L49.75 450.954L49.8686 451.573L52.7935 451.307ZM15.712 453.97L12.7871 454.232L12.9057 454.852L15.8306 454.59L15.712 453.97ZM46.6275 451.858L46.5089 451.234L43.5906 451.496L43.7026 452.116L46.6275 451.858ZM28.0307 452.88L25.1125 453.138L25.2244 453.757L28.1493 453.5L28.0307 452.88ZM83.5904 448.575L83.4718 447.951L80.5469 448.218L80.6655 448.837L83.5904 448.575ZM86.8249 448.281L89.7498 448.023L89.6312 447.404L86.7063 447.662L86.8249 448.281ZM77.4244 449.122L77.3058 448.498L74.3875 448.761L74.5061 449.38L77.4244 449.122ZM71.2716 449.665L71.153 449.046L68.2281 449.308L68.3467 449.923L71.2716 449.665ZM58.9463 450.764L58.8343 450.144L55.9094 450.402L56.028 451.022L58.9463 450.764ZM65.1122 450.212L64.9936 449.588L62.0688 449.855L62.1873 450.474L65.1122 450.212ZM293.029 429.972L292.911 429.352L289.986 429.61L290.104 430.234L293.029 429.972ZM268.385 432.165L268.273 431.536L265.348 431.803L265.467 432.423L268.385 432.165ZM262.232 432.707L262.114 432.088L259.189 432.346L259.307 432.965L262.232 432.707ZM286.863 430.519L286.745 429.895L283.826 430.162L283.945 430.781L286.863 430.519ZM274.551 431.613L274.432 430.994L271.508 431.256L271.626 431.875L274.551 431.613ZM249.907 433.806L249.795 433.187L246.87 433.445L246.989 434.064L249.907 433.806ZM280.71 431.07L280.592 430.451L277.667 430.709L277.786 431.328L280.71 431.07ZM225.269 435.99L225.151 435.371L222.226 435.633L222.345 436.253L225.269 435.99ZM219.11 436.542L218.991 435.918L216.073 436.18L216.185 436.8L219.11 436.542ZM210.026 437.347L212.951 437.085L212.832 436.465L209.907 436.723L210.026 437.347ZM231.429 435.443L231.317 434.824L228.392 435.081L228.51 435.701L231.429 435.443ZM243.748 434.349L243.629 433.729L240.698 433.992L240.816 434.611L243.748 434.349ZM237.588 434.892L237.47 434.272L234.551 434.534L234.663 435.158L237.588 434.892ZM342.311 425.594L342.192 424.975L339.274 425.233L339.386 425.852L342.311 425.594ZM336.145 426.146L336.033 425.522L333.108 425.789L333.227 426.408L336.145 426.146ZM348.47 425.047L348.352 424.428L345.427 424.69L345.545 425.309L348.47 425.047ZM354.623 424.5L354.511 423.88L351.586 424.147L351.705 424.767L354.623 424.5ZM329.992 426.693L329.874 426.074L326.949 426.331L327.067 426.951L329.992 426.693ZM311.507 428.33L311.389 427.711L308.464 427.968L308.583 428.588L311.507 428.33ZM323.826 427.236L323.708 426.616L320.789 426.874L320.901 427.498L323.826 427.236ZM299.189 429.429L299.07 428.809L296.145 429.067L296.264 429.687L299.189 429.429ZM305.348 428.877L305.229 428.258L302.311 428.52L302.423 429.144L305.348 428.877ZM317.673 427.783L317.555 427.163L314.63 427.426L314.748 428.045L317.673 427.783ZM256.066 433.255L255.948 432.635L253.023 432.897L253.141 433.517L256.066 433.255ZM185.382 439.536L188.307 439.273L188.188 438.649L185.263 438.912L185.382 439.536ZM179.229 440.083L182.147 439.821L182.035 439.201L179.11 439.459L179.229 440.083ZM191.548 438.984L194.472 438.722L194.354 438.102L191.429 438.364L191.548 438.984ZM6.7397 455.394L9.66458 455.137L9.54601 454.517L6.62771 454.775L6.7397 455.394ZM197.588 437.817L197.7 438.437L200.625 438.179L200.507 437.555L197.588 437.817ZM203.866 437.89L206.791 437.627L206.673 437.008L203.748 437.27L203.866 437.89ZM35.3495 443.506L35.1651 442.891L32.2797 443.312L32.4642 443.927L35.3495 443.506ZM159.868 424.699L160.052 425.309L162.938 424.889L162.747 424.278L159.868 424.699ZM165.942 423.808L166.126 424.419L169.005 423.998L168.82 423.388L165.942 423.808ZM187.246 421.344L187.055 420.729L184.176 421.149L184.367 421.764L187.246 421.344ZM41.4299 442.62L41.2388 442.009L38.3535 442.43L38.5379 443.04L41.4299 442.62ZM59.6511 439.956L59.4667 439.346L56.5813 439.766L56.7724 440.386L59.6511 439.956ZM29.2758 444.392L29.0782 443.777L26.1994 444.202L26.3904 444.813L29.2758 444.392ZM193.32 420.453L193.135 419.842L190.25 420.263L190.434 420.873L193.32 420.453ZM17.1283 446.16L16.9307 445.55L14.0519 445.975L14.243 446.586L17.1283 446.16ZM8.16262 447.467L11.0414 447.047L10.8569 446.436L7.97158 446.857L8.16262 447.467ZM47.5036 441.733L47.3192 441.123L44.4338 441.543L44.6117 442.149L47.5036 441.733ZM23.2021 445.279L23.011 444.668L20.1322 445.089L20.3167 445.699L23.2021 445.279ZM53.5774 440.843L53.3929 440.232L50.5076 440.653L50.7052 441.263L53.5774 440.843ZM172.022 422.926L172.206 423.537L175.092 423.112L174.901 422.501L172.022 422.926ZM153.794 425.585L153.979 426.196L156.857 425.775L156.673 425.16L153.794 425.585ZM181.166 422.225L180.975 421.615L178.096 422.035L178.28 422.65L181.166 422.225ZM211.541 417.794L211.356 417.183L208.471 417.604L208.662 418.219L211.541 417.794ZM129.486 429.131L129.677 429.741L132.556 429.32L132.371 428.701L129.486 429.131ZM99.2952 434.173L102.181 433.752L101.989 433.142L99.1107 433.562L99.2952 434.173ZM65.7315 439.074L65.547 438.459L62.6551 438.88L62.8461 439.495L65.7315 439.074ZM93.2214 435.059L96.1134 434.638L95.9157 434.028L93.037 434.448L93.2214 435.059ZM123.597 430.627L126.482 430.207L126.298 429.596L123.412 430.012L123.597 430.627ZM135.56 428.244L135.757 428.855L138.636 428.434L138.452 427.824L135.56 428.244ZM117.523 431.514L120.415 431.093L120.224 430.478L117.339 430.899L117.523 431.514ZM111.449 432.4L114.335 431.979L114.144 431.369L111.258 431.789L111.449 432.4ZM105.375 433.286L108.261 432.861L108.07 432.251L105.191 432.676L105.375 433.286ZM205.474 418.68L205.283 418.07L202.397 418.49L202.595 419.101L205.474 418.68ZM77.879 437.297L77.6945 436.687L74.8157 437.107L75.0002 437.718L77.879 437.297ZM87.1477 435.95L90.0264 435.529L89.8354 434.914L86.9566 435.335L87.1477 435.95ZM2.08887 448.358L4.96764 447.938L4.78319 447.323L1.90442 447.748L2.08887 448.358ZM71.8052 438.188L71.6142 437.578L68.7354 437.998L68.9264 438.609L71.8052 438.188ZM147.72 426.467L147.905 427.078L150.784 426.661L150.599 426.046L147.72 426.467ZM141.634 427.353L141.825 427.964L144.703 427.543L144.519 426.933L141.634 427.353ZM81.0739 436.831L83.9527 436.406L83.7682 435.796L80.8895 436.221L81.0739 436.831ZM199.393 419.571L199.209 418.96L196.324 419.381L196.508 419.991L199.393 419.571ZM2.02958 433.752L0.949219 434.028V434.693L2.34579 434.344L2.02958 433.752ZM124.763 403.436L124.453 402.848L121.693 403.545L122.003 404.128L124.763 403.436ZM113.109 406.38L112.793 405.792L110.033 406.489L110.343 407.072L113.109 406.38ZM118.933 404.901L118.617 404.314L115.85 405.01L116.166 405.598L118.933 404.901ZM107.273 407.845L106.957 407.257L104.19 407.954L104.506 408.546L107.273 407.845ZM136.416 400.493L136.107 399.905L133.34 400.601L133.649 401.184L136.416 400.493ZM130.593 401.958L130.277 401.37L127.51 402.071L127.826 402.659L130.593 401.958ZM142.253 399.018L141.937 398.426L139.17 399.127L139.486 399.715L142.253 399.018ZM148.083 397.549L147.773 396.961L145 397.662L145.309 398.241L148.083 397.549ZM101.449 409.319L101.133 408.736L98.3597 409.433L98.6693 410.016L101.449 409.319ZM89.7827 412.263L89.4731 411.68L86.7063 412.376L87.0159 412.96L89.7827 412.263ZM54.8093 421.095L54.493 420.507L51.7329 421.203L52.0491 421.787L54.8093 421.095ZM95.6127 410.789L95.3031 410.201L92.5363 410.898L92.8525 411.486L95.6127 410.789ZM60.6393 419.625L60.3296 419.037L57.5563 419.734L57.8659 420.322L60.6393 419.625ZM48.9792 422.565L48.663 421.981L45.8897 422.678L46.2059 423.265L48.9792 422.565ZM66.4627 418.151L66.1531 417.563L63.3797 418.264L63.6893 418.843L66.4627 418.151ZM153.906 396.07L153.597 395.487L150.836 396.183L151.146 396.771L153.906 396.07ZM83.9527 413.733L83.6365 413.145L80.8763 413.842L81.1925 414.429L83.9527 413.733ZM78.1227 415.207L77.8131 414.619L75.0463 415.316L75.3559 415.899L78.1227 415.207ZM72.2993 416.681L71.9897 416.093L69.2229 416.79L69.5325 417.378L72.2993 416.681ZM183.056 388.713L182.74 388.129L179.98 388.826L180.296 389.414L183.056 388.713ZM206.376 382.829L206.067 382.242L203.293 382.938L203.609 383.526L206.376 382.829ZM212.2 381.355L211.89 380.767L209.13 381.464L209.439 382.052L212.2 381.355ZM37.3192 425.508L37.003 424.921L34.2297 425.621L34.5459 426.209L37.3192 425.508ZM200.546 384.299L200.237 383.711L197.463 384.408L197.773 384.996L200.546 384.299ZM159.743 394.605L159.433 394.017L156.66 394.713L156.976 395.297L159.743 394.605ZM194.716 385.769L194.407 385.185L191.633 385.882L191.956 386.47L194.716 385.769ZM25.6526 428.452L25.343 427.864L22.5762 428.561L22.8924 429.149L25.6526 428.452ZM31.4892 426.983L31.1796 426.395L28.4128 427.091L28.7224 427.674L31.4892 426.983ZM8.1692 432.87L7.85959 432.282L5.08622 432.983L5.40242 433.567L8.1692 432.87ZM188.886 387.243L188.577 386.655L185.81 387.352L186.119 387.939L188.886 387.243ZM165.566 393.131L165.257 392.543L162.49 393.239L162.806 393.827L165.566 393.131ZM19.8292 429.926L19.5196 429.339L16.7462 430.035L17.0624 430.618L19.8292 429.926ZM13.9992 431.396L13.6896 430.808L10.9294 431.509L11.239 432.092L13.9992 431.396ZM43.1492 424.039L42.833 423.451L40.0728 424.147L40.3825 424.731L43.1492 424.039ZM171.403 391.656L171.093 391.069L168.326 391.77L168.636 392.353L171.403 391.656ZM177.226 390.187L176.917 389.599L174.143 390.295L174.459 390.883L177.226 390.187ZM1229.5 429.569L1229.88 429.646V424.78L1238.58 426.521L1239.08 426.621V413.629L1238.83 413.557L1222.85 409.383L1222.31 409.243V414.827L1213.72 412.58L1213.31 412.48V426.327L1213.52 426.368L1229.5 429.569ZM1223.11 410.043L1238.29 414.009V425.893L1229.88 424.206V416.808L1229.69 416.763L1223.11 415.044V410.043ZM1223.11 415.46L1229.3 417.079V424.088L1223.11 422.849V415.46ZM1213.89 413.05L1222.31 415.252V423.261L1222.6 423.315L1229.3 424.663V429.117L1213.9 426.028V413.05H1213.89ZM128.024 407.967V424.767L128.346 424.78L137.832 425.083L137.918 425.079L172.009 419.675L172.272 419.63V400.859L171.956 400.841L161.528 400.303L161.396 400.312L128.254 407.913L128.024 407.967ZM161.838 400.777L171.6 401.284V419.205L161.838 418.838V400.777ZM161.521 419.291L169.565 419.589L137.826 424.618L130.731 424.387L161.521 419.291ZM128.696 408.302L161.159 400.854V418.879L128.696 424.256V408.302ZM1201.11 375.63L1200.9 375.549L1178.12 366.944L1177.52 366.718V373.365L1168.96 370.132L1168.53 369.969V386.592L1168.69 386.646L1191.48 393.859L1191.89 393.99V388.066L1200.53 390.806L1201.11 390.987V375.63ZM1191.32 393.379L1169.11 386.343V370.647L1177.52 373.822V383.526L1177.75 383.598L1191.32 387.899V393.379ZM1191.32 387.288L1178.32 383.169V374.125L1191.32 379.036V387.288ZM1200.31 390.133L1191.89 387.465V378.8L1191.75 378.742L1178.33 373.672V367.654L1200.31 375.961V390.133ZM1239.08 389.965L1238.88 389.884L1222.91 383.856L1222.31 383.63V390.277L1213.75 387.044L1213.31 386.886V400.768L1213.48 400.827L1229.46 405.883L1229.88 406.009V400.09L1238.51 402.826L1239.08 403.002V389.965ZM1229.3 405.394L1213.89 400.524V387.56L1222.31 390.738V397.702L1222.54 397.779L1229.3 399.918V405.394ZM1229.3 399.308L1223.11 397.35V391.042L1229.3 393.375V399.308ZM1238.29 402.148L1229.88 399.484V393.131L1229.73 393.076L1223.11 390.58V384.561L1238.29 390.291V402.148ZM1177.52 397.531V403.115L1168.93 400.868L1168.53 400.768V417.355L1168.73 417.396L1191.53 421.963L1191.89 422.04V417.174L1200.6 418.915L1201.11 419.019V403.708L1200.85 403.644L1178.06 397.68L1177.52 397.531ZM1191.32 421.506L1169.11 417.057V401.347L1177.52 403.549V414.285L1177.81 414.348L1191.32 417.057V421.506ZM1178.33 398.331L1200.31 404.083V418.282L1191.89 416.591V406.873L1191.71 406.828L1178.33 403.328V398.331ZM1178.33 403.753L1191.32 407.153V416.478L1178.33 413.873V403.753ZM569.787 489.079H565.498V491.833H559.49V489.079H555.202V491.833H549.214V489.079H544.932V491.833H538.924V489.079H534.642V491.833H528.641V489.079H524.352V491.833H518.344V489.079H514.056V491.833H159.558L159.44 491.846L115.059 501.212H0.949219V501.759H115.112L115.231 501.745L159.611 492.389H1366.09V491.833H569.787V489.079Z" fill="#BFAFCF"/>
</svg>
