<svg width="746" height="274" viewBox="0 0 746 274" fill="none" xmlns="http://www.w3.org/2000/svg">
<path fill-rule="evenodd" clip-rule="evenodd" d="M367.789 266.142L367.962 266.139V249.85L367.792 249.847L345.004 249.202L344.82 249.195V266.364H345L367.789 266.142ZM345.173 249.536L367.612 250.174V265.815L345.173 266.033V249.536ZM302.436 252.297L302.281 252.3V255.715L302.439 255.712L305.427 255.661L305.579 255.657V252.215L305.416 252.218L302.436 252.297ZM305.269 255.367L302.598 255.415V252.593L305.269 252.525V255.367ZM281.186 252.836L281.031 252.839V256.077H281.19L283.839 256.029L283.997 256.026V252.767L283.835 252.771L281.186 252.836ZM283.68 255.732L281.348 255.773V253.133L283.68 253.075V255.732ZM287.991 252.665L287.836 252.669V255.961H287.994L290.751 255.913L290.906 255.91V252.59L290.748 252.593L287.991 252.665ZM290.596 255.616L288.157 255.657V252.959L290.596 252.894V255.616ZM295.073 252.484L294.918 252.491V255.842L295.076 255.838L297.942 255.787L298.097 255.784V252.406L297.938 252.413L295.073 252.484ZM297.783 255.494L295.235 255.541V252.781L297.783 252.713V255.494ZM314.376 205.659L306.444 201.138L306.307 201.111L219.841 215.004L219.676 215.031V239.468L219.892 239.454L240.889 237.816L249.06 240.051L249.128 240.058L253.172 239.778L341.536 233.695L341.72 233.681V201.697L341.493 201.728L314.376 205.659ZM220.764 239.01L220.076 239.065V215.345L220.764 215.236V239.01ZM222.627 235.984V238.864L221.081 238.987V215.185L306.307 201.493L307.489 202.165L228.664 214.577L228.531 214.598V229.894L222.67 235.885L222.627 235.984ZM338.696 233.514L290.791 236.813L292.964 235.438L338.696 232.094V233.514ZM341.324 233.333L339.01 233.493V224.974L341.324 223.264V233.333ZM341.324 222.886L338.754 224.783L338.696 224.83V231.791L292.899 235.138L292.824 235.165L290.157 236.854L253.139 239.403L249.132 239.679L240.961 237.451L240.889 237.444L222.937 238.84V236.045L228.801 230.051L228.841 229.952V214.85L307.9 202.404L314.228 206.01L314.362 206.037L341.32 202.131V222.886H341.324ZM341.547 197.75L341.681 197.729V195.423L341.493 195.454L339.763 195.73L339.788 195.877H339.63V198.047L339.817 198.016L341.547 197.75ZM339.951 196.01L341.367 195.784V197.48L339.951 197.705V196.01ZM329.027 199.705L329.164 199.684V197.436L328.98 197.47L327.354 197.729L327.38 197.876H327.221V199.985L327.405 199.954L329.027 199.705ZM327.538 198.002L328.846 197.787V199.425L327.538 199.633V198.002ZM335.186 198.739L335.319 198.719V196.443L335.139 196.477L333.463 196.743L333.489 196.89H333.33V199.029L333.514 199.002L335.186 198.739ZM333.647 198.364V197.02L335.006 196.798V198.466L333.644 198.681L333.647 198.364ZM358.061 251.068L357.834 251.061V264.713L358.058 264.709L365.965 264.661H366.181V251.266L365.968 251.263L358.061 251.068ZM365.741 264.249L358.277 264.296V251.488L365.741 251.672V264.249ZM346.95 250.792L346.723 250.785V264.777H346.943L355.095 264.726H355.315V250.993H355.102L346.95 250.792ZM354.882 264.317L347.162 264.365V251.212L354.882 251.406V264.317ZM211.646 117.501L211.487 117.518L195.543 125.652L195.593 126.034L200.123 127.078L200.278 127.061L216.356 119.05L216.309 118.668L211.646 117.501ZM200.145 126.655L196.245 125.764L211.613 117.92L215.646 118.934L200.145 126.655ZM308.53 73.0703L308.624 73.1078L308.714 73.0635L313.234 70.815L313.641 70.6137L313.219 70.4431L308.019 68.3482L307.918 68.3106L307.824 68.355L303.312 70.6546L302.904 70.8628L303.333 71.03L308.53 73.0703ZM307.943 68.7678L312.621 70.6478L308.606 72.6472L303.928 70.8082L307.943 68.7678ZM245.293 104.573L245.463 104.559L248.591 103.003L248.555 102.621L243.646 101.175L243.56 101.147L243.48 101.188L240.37 102.775L239.905 103.01L240.406 103.157L245.293 104.573ZM243.603 101.598L247.917 102.867L245.333 104.15L241.033 102.901L243.603 101.598ZM263.89 95.306L263.977 95.3367L264.06 95.2923L267.563 93.5454L268.013 93.3202L267.53 93.1633L262.51 91.5392L262.423 91.5153L262.341 91.5563L258.859 93.3373L258.416 93.5625L258.895 93.7126L263.89 95.306ZM262.463 91.9691L266.914 93.4055L263.944 94.8897L259.511 93.4772L262.463 91.9691ZM284.808 84.8859L284.898 84.92L284.981 84.8757L288.946 82.9001L289.375 82.6852L288.921 82.5248L283.792 80.6858L283.702 80.6551L283.615 80.696L279.673 82.7125L279.251 82.9308L279.705 83.0912L284.808 84.8859ZM283.738 81.1054L288.315 82.7432L284.862 84.4628L280.307 82.8558L283.738 81.1054ZM472.224 253.955L472.044 253.951L469.56 253.887L469.373 253.883V262.072H472.224V253.955ZM471.856 261.724H469.741V254.241L471.856 254.293V261.724ZM466.454 253.812L466.277 253.808L463.707 253.743L463.513 253.74V262.072H466.45V253.812H466.454ZM466.09 261.724H463.888V254.098L466.09 254.156V261.724ZM457.631 253.597L457.443 253.593V262.075H460.482V253.668L460.298 253.665L457.631 253.597ZM460.11 261.724H457.818V253.948L460.11 254.009V261.724ZM233.764 229.59H234.2V224.936H233.764V229.59ZM243.026 228.607H243.466V223.817H243.026V228.607ZM238.327 229.106H238.766V224.383H238.327V229.106ZM247.874 228.092H248.313V223.227H247.874V228.092ZM456.971 160.218L457.134 160.232L486.337 154.589L486.59 154.537V140.067L486.395 139.989L483.67 138.894L483.476 138.88L454.164 145.366L453.922 145.417V159.277L454.139 159.348L456.971 160.218ZM483.869 139.624L485.962 140.467V153.865L483.869 153.121V139.624ZM483.523 153.637L485.141 154.21L457.094 159.628L455.472 159.126L483.523 153.637ZM454.557 145.898L483.238 139.552V153.087L454.557 158.703V145.898ZM616.967 210.299L617.688 210.521V176.94L617.392 176.794L525.6 131.497L524.789 131.097V182.3L525.178 182.416L616.967 210.299ZM536.715 184.825L535.425 184.436V172.662L536.715 173.115V184.825ZM536.715 172.798L535.425 172.344V155.213L536.715 155.755V172.798ZM536.715 155.428L535.425 154.885V153.565L536.715 154.114V155.428ZM554.274 190.158L540.215 185.89V174.351L554.274 179.295V190.158ZM554.274 178.97L540.215 174.03V157.229L554.274 163.163V178.97ZM554.274 162.842L540.215 156.909V155.619L554.274 161.648V162.842ZM555.755 190.609L554.591 190.25V179.404L555.755 179.813V190.609ZM555.755 179.496L554.591 179.086V163.299L555.755 163.791V179.496ZM555.755 163.463L554.591 162.968V161.778L555.755 162.276V163.463ZM568.73 194.549L558.815 191.533V180.888L568.73 184.378V194.549ZM570.918 195.211L569.051 194.648V184.406L570.918 184.18V195.211ZM570.918 183.877L568.917 184.119L558.819 180.571V165.077L570.918 170.188V183.877ZM570.918 169.854L558.819 164.753V163.586L570.918 168.772V169.854ZM572.118 195.58L571.235 195.314V184.143L572.118 184.034V195.58ZM572.118 183.73L571.235 183.839V170.318L572.118 170.69V183.73ZM572.118 170.365L571.235 169.994V168.912L572.118 169.291V170.365ZM585.392 199.609L574.825 196.402L574.821 183.703L585.392 182.42V199.609ZM585.392 182.116L574.821 183.403L574.817 171.829L585.392 176.292V182.116ZM585.392 175.964L574.817 171.505V170.447L585.392 174.982V175.964ZM586.329 199.896L585.709 199.708V182.382L586.329 182.307V199.896ZM586.329 182.007L585.709 182.082V176.425L586.329 176.684V182.007ZM586.329 176.364L585.709 176.104V175.122L586.329 175.384V176.364ZM598.096 203.472L588.747 200.629V182.017L596.68 181.052L598.096 181.649V203.472ZM588.747 181.717V177.708L596.125 180.82L588.747 181.717ZM598.096 181.325L597.278 180.977L598.096 180.881V181.325ZM598.096 180.577L596.727 180.745L588.751 177.38V176.422L598.1 180.427V180.577H598.096ZM598.788 203.68L598.41 203.564V181.785L598.788 181.942V203.68ZM598.788 181.618L598.41 181.458V180.84L598.788 180.792V181.618ZM615.489 208.753L601.059 204.369V179.567L615.489 177.793V208.753ZM615.806 177.749L616.581 177.657V209.084L615.806 208.852V177.749ZM525.899 132.824L615.623 177.097L615.356 177.128L525.899 133.465V132.824ZM525.899 133.806L614.805 177.2L600.756 178.929L525.896 146.025V133.806H525.899ZM525.899 146.768L600.345 179.489V204.154L599.224 203.809V180.458L599.098 180.4L588.617 175.906L588.307 175.777V200.493L586.768 200.026V175.115L586.642 175.057L574.691 169.932L574.381 169.802V170.123L574.388 196.262L572.561 195.706V169.014L572.431 168.96L558.685 163.078L558.376 162.944V191.407L556.191 190.742V162.01L556.065 161.952L540.089 155.107L539.782 154.971V185.753L537.155 184.952V153.845L537.029 153.79L525.903 149.017V146.768H525.899ZM525.899 149.474L535.108 153.425V154.746L525.899 150.859V149.474ZM525.899 151.194L535.108 155.08V172.232L525.899 168.994V151.194ZM525.899 169.311L535.108 172.546V184.334L525.899 181.54V169.311ZM600.518 271.148L600.439 271.131H570.355L542.773 261.714L542.698 261.703H534.895V259.393H534.455V273.4H526.681V272.089H526.184V273.4H518.406V254.218H517.967V261.707H478.578V237.806L486.438 234.101L486.507 234.067L486.521 233.991L486.759 232.913L492.396 230.29L492.58 230.204V224.991L526.184 222.759V223.414H526.681V222.729L534.426 222.213V222.705H534.927V222.179L622.146 216.386L622.665 216.352V174.832L622.377 174.682L548.234 136.072L588.704 127.818L589.086 127.743V91.9827L588.924 91.8463L485.782 4.36047L485.544 4.15575L485.263 4.28882L399.036 44.1438V38.8962H398.668V44.3178L398.56 44.3656L340.506 12.0237L340.762 11.8702L340.495 11.4744L340.203 11.6518V3.46313C340.635 3.42219 341.035 3.26524 341.324 2.98546C341.659 2.66814 341.868 2.23141 341.868 1.75033C341.868 1.26924 341.659 0.829104 341.324 0.515204C340.992 0.201305 340.527 0 340.019 0C339.511 0 339.05 0.197893 338.714 0.515204C338.383 0.832515 338.17 1.26924 338.17 1.75033C338.17 2.23141 338.379 2.67156 338.714 2.98546C339.003 3.26524 339.403 3.42219 339.835 3.46313V11.6518L334.815 8.85742L334.627 9.15767L339.68 11.9691L339.136 12.3035L339.403 12.6993L339.835 12.4366V26.8998L339.752 26.9476L240.284 83.7054L240.028 83.8487V88.233L205.71 107.333V106.477H205.212V107.606L168.991 127.771L168.732 127.914V132.994L169.139 133.08L205.212 140.613V141.896H205.71V140.716L216.641 142.998L205.71 147.495V146.601H205.212V147.703L169.042 162.586L168.728 162.716V167.861L169.168 167.933L188.799 170.925L116.361 196.143L116.019 196.266V224.646L116.516 224.677L199.255 229.317H199.352L213.693 227.563V248.315L214.277 248.332L276.93 249.878V252.941L274.854 253.01L274.641 253.017V259.823L273.362 259.864L273.149 259.871V261.714H200.614L155.339 268.783H0V269.196H155.354L155.386 269.193L200.664 262.126H273.142V270.196H195.045V273.403H0V274H610.609V273.403H606.274L600.518 271.148ZM486.229 233.862L478.347 237.574L478.261 237.618V261.703H477.644V237.158L486.399 233.081L486.229 233.862ZM478.261 262.12V267.756H477.644V262.12H478.261ZM491.924 229.812L477.172 236.684L476.988 236.769V269.537H444.134V259.806L444.112 259.738L442.414 256.756V247.411L460.622 246.878L461.206 246.858V210.371L491.924 215.236V229.812ZM398.308 247.581L302.227 243.965L312.473 243.453L408.291 247.284L398.308 247.581ZM406.839 248.455V272.072H396.974V248.745L406.839 248.455ZM323.206 265.63L319.519 262.161V246.138L370.063 247.882V271.185H344.604L341.832 270.203L341.76 270.189H323.253V265.671L323.206 265.63ZM322.211 266.811L318.521 263.341V246.104L319.202 246.128V262.283L319.249 262.328L322.939 265.798V270.189H322.262V266.849L322.211 266.811ZM318.254 263.508L321.945 266.978V270.189H317.31V246.06L318.204 246.09V263.461L318.254 263.508ZM390.801 271.516V272.072H347.094L345.533 271.516H390.801ZM370.942 271.185V260.697H373.797L384.18 267.848L384.342 267.903H390.801V271.185H370.942ZM384.429 267.381L374.049 260.226L373.887 260.175H370.942V258.994H376.554L387.196 266.627L387.33 266.671H390.801V267.381H384.429ZM370.942 248.383V247.841L379.347 248.141L370.942 248.383ZM383.675 249.137V263.583L376.755 258.622L376.622 258.578H372.135V249.475L383.675 249.137ZM371.818 249.485V258.578H370.942V249.509L371.818 249.485ZM383.989 263.812V249.13L390 248.953V266.258H387.405L383.989 263.812ZM390.318 266.258V248.943L390.801 248.926V266.258H390.318ZM383.956 248.001L370.942 247.537V247.08L370.52 247.066L316.888 245.213H316.856L311.655 245.439L288.784 244.627L298.825 244.128L393.878 247.704L383.956 248.001ZM248.8 246.616L258.408 246.138L279.986 246.81L277.348 246.923L276.926 246.94V247.435L248.8 246.616ZM276.926 247.731V248.404L235.577 247.274L244.998 246.807L276.926 247.731ZM293.909 246.21L283.969 246.64L262.077 245.957L271.798 245.473L293.909 246.21ZM275.42 245.292L285.291 244.804L307.882 245.602L297.833 246.039L275.42 245.292ZM277.802 247.735L316.434 246.066V270.189H277.802V247.735ZM391.24 271.516H396.347V272.072H391.24V271.516ZM391.24 271.185V248.915L396.347 248.765V271.185H391.24ZM316.621 191.025V192.038L315.324 192.267L291.087 188.732V136.669L316.73 143.148H316.621V144.66H317.119V143.247L396.127 163.217V194.085L370.502 189.694V188.374H370.005V189.612L349.801 186.149H349.584L317.119 191.953V191.028H316.621V191.025ZM211.073 205.665L217.127 204.447L236.143 206.43L229.864 207.549L211.073 205.665ZM228.783 207.743L222.566 208.856L204.102 207.068L210.074 205.867L228.783 207.743ZM218.111 204.246L224.235 203.014L243.563 205.096L237.213 206.232L218.111 204.246ZM225.208 202.823L231.414 201.571L251.031 203.765L244.608 204.911L225.208 202.823ZM232.376 201.38L238.665 200.114L258.578 202.421L252.069 203.588L232.376 201.38ZM239.61 199.923L245.978 198.64L266.172 201.063L259.594 202.236L239.61 199.923ZM246.911 198.453L253.363 197.156L273.83 199.691L267.177 200.879L246.911 198.453ZM254.296 196.965L260.841 195.651L281.572 198.306L274.829 199.51L254.296 196.965ZM261.757 195.467L268.399 194.13L289.385 196.904L282.556 198.128L261.757 195.467ZM269.304 193.949L276.04 192.594L297.278 195.498L290.355 196.736L269.304 193.949ZM276.926 192.417L283.778 191.038L305.247 194.072L298.237 195.331L276.926 192.417ZM284.661 190.854L290.578 189.667L312.214 192.826L306.195 193.904L284.661 190.854ZM179.317 164.497L198.408 167.571L194.454 168.949L175.511 165.985L179.317 164.497ZM174.92 165.896L174.653 165.848L178.441 164.36L178.733 164.405L174.92 165.896ZM178.986 164.149L182.791 162.651L183.105 162.702L179.281 164.193L178.986 164.149ZM179.865 164.289L183.685 162.798L202.967 165.991L198.999 167.373L179.865 164.289ZM183.336 162.436L187.152 160.935L187.488 160.996L183.653 162.491L183.336 162.436ZM184.229 162.583L188.064 161.092L207.53 164.401L203.558 165.787L184.229 162.583ZM187.689 160.727L191.517 159.219L191.877 159.283L188.028 160.785L187.689 160.727ZM188.605 160.88L192.45 159.382L212.096 162.811L208.121 164.197L188.605 160.88ZM192.047 159.01L195.892 157.496L196.278 157.567L192.414 159.075L192.047 159.01ZM192.984 159.174L196.844 157.666L216.663 161.221L212.669 162.61L192.984 159.174ZM196.426 157.291L200.278 155.773L200.686 155.848L196.811 157.363L196.426 157.291ZM197.373 157.461L201.244 155.953L221.236 159.628L217.236 161.02L197.373 157.461ZM200.812 155.564L204.679 154.043L205.108 154.121L201.223 155.639L200.812 155.564ZM201.781 155.742L205.666 154.227L225.82 158.031L221.809 159.427L201.781 155.742ZM205.202 153.838L209.087 152.306L209.541 152.391L205.63 153.916L205.202 153.838ZM206.193 154.026L210.092 152.504L230.416 156.434L226.393 157.833L206.193 154.026ZM209.613 152.108L213.52 150.566L213.992 150.661L210.063 152.193L209.613 152.108ZM210.615 152.299L214.536 150.767L235.011 154.831L230.981 156.24L210.615 152.299ZM214.035 150.365L217.956 148.822L218.45 148.921L214.514 150.457L214.035 150.365ZM215.059 150.566L218.987 149.034L239.617 153.227L235.569 154.64L215.059 150.566ZM436.691 135.642L432.694 136.635L337.237 102.942L341.396 101.321L436.691 135.642ZM340.531 99.9633V28.1929L341.713 28.8105V100.386L340.531 99.9633ZM475.208 125.553V123.257L480.535 125.618L477.226 126.43L475.208 125.553ZM476.747 126.549L475.212 126.928V125.884L476.747 126.549ZM475.208 122.926V120.571L484.312 124.683L481.01 125.495L475.208 122.926ZM475.208 120.241V118.562L474.916 118.425L466.036 114.379V113.611L488.085 123.751L484.795 124.563L475.208 120.241ZM474.177 119.179V127.18L466.036 129.187V115.471L474.177 119.179ZM466.036 113.284V110.738L491.834 122.834L488.554 123.646L466.036 113.284ZM466.036 110.4V107.79L495.571 121.912L492.302 122.721L466.036 110.4ZM466.036 107.456V104.778L499.298 120.991L496.036 121.796L466.036 107.456ZM466.036 104.443V101.707L503.01 120.084L499.759 120.885L466.036 104.443ZM466.036 101.369V98.561L506.711 119.173L503.467 119.971L466.036 101.369ZM466.036 98.2198V95.3401L510.405 118.265L507.165 119.06L466.036 98.2198ZM466.036 94.9989V92.0442L538.402 130.173V130.947L513.062 117.753L512.665 117.709L510.852 118.152L466.036 94.9989ZM466.036 91.6996V88.6663L538.402 127.556V129.831L466.036 91.6996ZM466.036 88.3217V85.2066L538.402 124.871V127.211L466.036 88.3217ZM445.009 73.3399L448.714 71.9853L538.395 122.127V124.533L445.009 73.3399ZM465.718 85.036V88.158L440.937 74.8377L444.635 73.4832L465.718 85.036ZM465.718 88.4957V91.5324L436.864 76.3253L440.555 74.9742L465.718 88.4957ZM465.718 91.8736V94.8351L432.788 77.8197L436.482 76.4686L465.718 91.8736ZM465.718 95.1729V98.0594L428.719 79.3108L432.406 77.963L465.718 95.1729ZM465.718 98.4006V101.212L424.65 80.8018L428.333 79.4507L465.718 98.4006ZM465.718 101.55V104.29L426.744 85.2885L424.084 81.0065L424.261 80.9451L465.718 101.55ZM465.718 104.627V107.306L429.728 90.0925L427.039 85.773L465.718 104.627ZM465.718 107.637V110.25L432.597 94.7123L430.02 90.5668L465.718 107.637ZM465.718 110.588V113.137L435.358 99.1683L432.889 95.1866L465.718 110.588ZM465.718 113.468V114.239L436.432 100.902L435.646 99.6357L465.718 113.468ZM512.243 118.889V185.18L416.905 197.641L397.191 194.263V193.171L498.303 178.213L498.494 177.316L484.02 168.939L483.656 168.874L452.066 174.146L412.256 151.129L411.863 151.067L380.511 158.233L370.502 155.704V155.042H370.005V155.581L366.632 154.728L512.243 118.889ZM518.439 204.642V203.516C520.014 203.591 521.639 203.697 523.319 203.844C527.056 204.174 530.909 204.669 534.423 205.263V206.283H534.924V205.341C536.427 205.604 537.883 205.877 539.209 206.174C542.817 206.986 545.102 207.76 546.111 208.429C546.424 208.634 546.59 208.808 546.612 208.951C546.626 209.043 546.536 209.149 546.349 209.262C545.797 209.582 544.63 209.831 542.856 209.982C539.696 210.244 535.201 210.149 530.311 209.753H530.307C525.514 209.364 520.356 208.678 515.707 207.76C511.432 206.921 508.394 206 506.989 205.188C506.585 204.952 506.336 204.741 506.264 204.56C506.225 204.461 506.289 204.355 506.455 204.243C506.902 203.949 507.893 203.71 509.472 203.55C511.652 203.328 514.64 203.332 517.941 203.485V204.635H518.439V204.642ZM534.426 210.613V211.224L529.777 210.299C529.936 210.313 530.102 210.34 530.257 210.354C531.691 210.466 533.079 210.548 534.426 210.613ZM505.677 204.775C505.799 205.082 506.134 205.396 506.664 205.703C506.668 205.703 506.672 205.706 506.679 205.706L449.774 194.403L457.789 193.352L506.646 203.495C506.423 203.577 506.243 203.666 506.095 203.758C505.655 204.048 505.522 204.389 505.677 204.775ZM509.403 202.96C508.517 203.052 507.803 203.171 507.248 203.315L458.698 193.232L466.846 192.171L515.815 202.806C513.343 202.741 511.133 202.786 509.403 202.96ZM390.011 160.635L388.534 160.263L391.795 159.539V160.246L390.011 160.635ZM391.795 160.553V161.088L390.66 160.802L391.795 160.553ZM386.414 159.73L382.598 158.768L411.895 152.074L414.382 153.51L386.414 159.73ZM417.161 187.449C415.481 185.852 413.221 184.498 410.612 183.457V156.424L416.999 155.025L419.903 156.704V187.029L417.161 187.449ZM419.9 187.452V188.824L410.609 190.199V183.907C413.135 184.938 415.308 186.258 416.923 187.818L417.002 187.893L417.114 187.872L419.9 187.452ZM410.609 156.121V155.356L415.64 154.237L416.617 154.804L410.609 156.121ZM409.199 182.908C406.77 182.089 404.071 181.546 401.216 181.338L401.224 158.488L410.169 156.523V183.287C409.844 183.16 409.535 183.02 409.199 182.908ZM410.169 183.733V190.264L401.213 191.588L401.216 181.751C404.017 181.959 406.669 182.492 409.052 183.3C409.441 183.43 409.798 183.59 410.169 183.733ZM401.224 158.178V157.441L410.169 155.452V156.216L401.224 158.178ZM400.787 157.537V158.27L392.231 160.143V159.437L400.787 157.537ZM392.231 160.461L400.787 158.581L400.784 181.321C400.074 181.277 399.364 181.239 398.639 181.239C398.329 181.239 398.001 181.243 397.659 181.253C397.497 181.256 397.346 181.263 397.191 181.27V162.453L396.798 162.354L392.235 161.204V160.461H392.231ZM400.784 181.734L400.78 191.653L397.191 192.181V181.686C397.353 181.679 397.519 181.666 397.677 181.662C397.976 181.652 398.301 181.649 398.639 181.649C399.364 181.649 400.074 181.693 400.784 181.734ZM460.013 206.167V245.725L350.294 240.512V187.374L460.013 206.167ZM430.049 185.91V187.323L420.343 188.756V187.381L430.049 185.91ZM420.343 186.965V156.956L430.049 162.566V185.487L420.343 186.965ZM440.612 184.3V185.76L430.489 187.255V185.842L440.612 184.3ZM430.489 185.422V162.822L440.612 168.677V183.884L430.489 185.422ZM451.641 182.625V184.133L441.049 185.695V184.235L451.641 182.625ZM441.052 183.815V168.929L451.645 175.053V182.205L441.052 183.815ZM475.622 178.558L475.619 174.129L487.638 172.191L487.772 172.266L487.775 176.708L475.622 178.558ZM487.775 177.131V178.79L475.622 180.584V178.981L487.775 177.131ZM458.615 175.883L454.322 174.767L483.641 169.881L486.294 171.416L458.615 175.883ZM463.596 180.39V176.07L475.179 174.204V178.626L463.596 180.39ZM475.183 179.045V180.649L463.599 182.358V180.803L475.183 179.045ZM458.456 176.855L458.676 176.865L463.16 176.138V180.455L452.081 182.14V175.207L458.456 176.855ZM463.16 180.871V182.427L452.081 184.064V182.556L463.16 180.871ZM494.428 176.118L496.749 177.455L488.204 178.721V177.063L494.428 176.118ZM488.208 176.643V172.522L493.855 175.787L488.208 176.643ZM428.308 138.471L423.76 139.586L423.035 139.341L427.573 138.211L428.308 138.471ZM428.106 138.085L432.68 136.949L433.422 137.208L428.842 138.337L428.106 138.085ZM367.994 152.705L351.275 148.222L355.578 147.062L372.283 151.644L370.506 152.081V152.009H370.009V152.207L367.994 152.705ZM370.009 152.514V152.821L369.176 153.026L368.592 152.866L370.009 152.514ZM317.122 131.899V130.606L364.721 144.233L360.382 145.404L312.603 132.015L316.621 130.654V131.896H317.122V131.899ZM370.506 144.36V143.155L387.013 147.983L382.677 149.058L365.943 144.267L370.012 143.172V144.36H370.506ZM382.086 149.205L377.772 150.279L361.038 145.588L365.37 144.421L382.086 149.205ZM377.174 150.426L372.87 151.497L356.144 146.908L360.465 145.745L377.174 150.426ZM317.04 133.574H316.621V135.089H317.119V133.598L359.806 145.561L355.477 146.727L307.792 133.653L312.098 132.193L317.04 133.574ZM354.911 146.878L350.601 148.044L303.005 135.274L307.287 133.823L354.911 146.878ZM370.506 152.391L372.87 151.804L373.469 151.968L370.506 152.698V152.391ZM373.465 151.658L377.761 150.59L378.374 150.76L374.067 151.822L373.465 151.658ZM378.359 150.443L382.666 149.372L383.293 149.549L378.972 150.614L378.359 150.443ZM383.254 149.225L387.582 148.15L388.224 148.335L383.884 149.402L383.254 149.225ZM388.162 148.004L392.512 146.922L393.165 147.116L388.804 148.191L388.162 148.004ZM393.089 146.782L397.461 145.697L398.124 145.902L393.745 146.98L393.089 146.782ZM398.027 145.554L402.427 144.462L403.108 144.673L398.697 145.758L398.027 145.554ZM402.986 144.322L407.408 143.227L408.096 143.449L403.671 144.537L402.986 144.322ZM407.967 143.087L412.418 141.978L413.117 142.203L408.655 143.305L407.967 143.087ZM412.962 141.845L417.442 140.733L418.152 140.968L413.668 142.074L412.962 141.845ZM417.99 140.596L422.491 139.48L423.216 139.723L418.7 140.832L417.99 140.596ZM422.506 139.167L327.167 106.869L331.748 105.085L427.05 138.037L422.506 139.167ZM421.965 139.3L417.453 140.419L322.193 108.804L326.735 107.036L421.965 139.3ZM416.905 140.555L412.425 141.668L317.249 110.735L321.75 108.981L416.905 140.555ZM411.874 141.804L407.415 142.913L312.34 112.642L316.805 110.905L411.874 141.804ZM406.86 143.049L402.434 144.151L307.467 114.546L311.893 112.823L406.86 143.049ZM401.872 144.291L397.468 145.387L302.623 116.436L307.017 114.727L401.872 144.291ZM396.902 145.526L392.527 146.615L297.812 118.309L302.173 116.61L396.902 145.526ZM391.95 146.758L387.589 147.84L293.026 120.176L297.358 118.487L391.95 146.758ZM369.652 142.903L365.287 144.083L288.272 122.032L292.572 120.357L369.652 142.903ZM316.337 130.381L312.005 131.851L283.54 123.878L287.811 122.213L316.337 130.381ZM311.5 132.022L307.186 133.482L278.829 125.71L283.071 124.055L311.5 132.022ZM306.681 133.656L302.396 135.11L274.151 127.532L278.364 125.887L306.681 133.656ZM301.884 135.284L297.617 136.73L269.487 129.35L273.675 127.716L301.884 135.284ZM297.718 137.065L323.321 143.783L297.304 137.208L297.718 137.065ZM298.233 136.891L302.494 135.448L350.028 148.198L345.732 149.355L298.233 136.891ZM350.702 148.375L367.396 152.852L363.269 153.879L355.261 151.852L346.409 149.532L350.702 148.375ZM367.998 153.016L368.581 153.176L364.473 154.186L363.893 154.036L367.998 153.016ZM433.956 137.078L433.21 136.819L437.199 135.826L437.949 136.099L433.956 137.078ZM432.164 136.765L427.584 137.901L332.18 104.914L336.804 103.109L432.164 136.765ZM331.744 104.764L330.822 104.443L335.438 102.631L336.375 102.959L331.744 104.764ZM331.312 104.931L326.731 106.716L325.826 106.408L330.396 104.61L331.312 104.931ZM326.288 106.89L321.743 108.66L320.853 108.367L325.383 106.582L326.288 106.89ZM321.307 108.834L316.798 110.592L315.922 110.305L320.42 108.538L321.307 108.834ZM316.358 110.762L311.882 112.506L311.024 112.229L315.483 110.476L316.358 110.762ZM311.442 112.676L307.009 114.403L306.166 114.14L310.585 112.4L311.442 112.676ZM306.563 114.58L302.162 116.293L301.333 116.04L305.719 114.314L306.563 114.58ZM301.711 116.467L297.343 118.173L296.529 117.927L300.879 116.218L301.711 116.467ZM296.889 118.35L292.557 120.039L291.761 119.807L296.078 118.108L296.889 118.35ZM292.096 120.217L287.793 121.895L287.01 121.67L291.299 119.985L292.096 120.217ZM287.331 122.076L283.057 123.738L282.293 123.523L286.549 121.851L287.331 122.076ZM282.592 123.922L278.35 125.573L277.604 125.372L281.835 123.707L282.592 123.922ZM277.881 125.758L273.661 127.399L272.933 127.201L277.135 125.549L277.881 125.758ZM273.189 127.59L268.997 129.224L268.287 129.037L272.461 127.395L273.189 127.59ZM268.525 129.405L264.359 131.029L263.663 130.852L267.815 129.221L268.525 129.405ZM263.879 131.217L259.738 132.831L259.064 132.66L263.188 131.039L263.879 131.217ZM259.252 133.018L255.136 134.622L254.48 134.462L258.581 132.851L259.252 133.018ZM254.649 134.813L250.552 136.41L249.917 136.256L253.997 134.653L254.649 134.813ZM250.065 136.601L245.992 138.187L245.373 138.041L249.431 136.447L250.065 136.601ZM245.502 138.378L241.448 139.958L240.849 139.818L244.882 138.232L245.502 138.378ZM240.954 140.156L236.921 141.726L236.341 141.596L240.352 140.02L240.954 140.156ZM236.42 141.92L232.409 143.483L231.85 143.36L235.847 141.79L236.42 141.92ZM231.904 143.681L227.914 145.236L227.374 145.12L231.345 143.558L231.904 143.681ZM227.406 145.431L223.431 146.983L222.912 146.874L226.869 145.318L227.406 145.431ZM222.919 147.181L218.962 148.723L218.465 148.625L222.404 147.075L222.919 147.181ZM219.506 148.836L223.456 147.297L244.23 151.62L240.168 153.036L219.506 148.836ZM223.968 147.093L227.94 145.547L248.854 150.01L244.778 151.426L223.968 147.093ZM228.448 145.349L232.438 143.797L253.496 148.399L249.406 149.826L228.448 145.349ZM232.938 143.595L236.946 142.036L258.142 146.779L254.04 148.208L232.938 143.595ZM237.444 141.845L241.469 140.272L262.802 145.158L258.679 146.594L237.444 141.845ZM241.967 140.081L246.018 138.501L267.476 143.534L263.335 144.97L241.967 140.081ZM246.508 138.307L250.58 136.724L272.158 141.896L268.003 143.343L246.508 138.307ZM251.067 136.529L255.154 134.936L276.861 140.262L272.681 141.719L251.067 136.529ZM255.641 134.748L259.753 133.145L281.572 138.621L277.377 140.081L255.641 134.748ZM260.239 132.957L264.373 131.343L286.304 136.969L282.091 138.436L260.239 132.957ZM264.856 131.159L269.019 129.538L297.105 136.904L296.677 137.051L290.705 135.54L290.387 135.557L286.823 136.799L264.856 131.159ZM349.7 241.61L445.936 246.182L441.081 246.322L343.22 241.931L349.7 241.61ZM442.119 256.869L443.82 259.851V269.541H441.229V247.448L442.094 247.424V256.794L442.119 256.869ZM440.789 247.462V269.541H439.625V247.499L440.789 247.462ZM437.026 246.445L426.848 246.745L329.434 242.617L340.034 242.091L437.026 246.445ZM438.998 247.516V269.544H421.774V248.025L438.998 247.516ZM422.664 246.868L412.616 247.162L315.789 243.292L326.201 242.774L422.664 246.868ZM421.453 248.028V269.537H420.314V248.059L421.453 248.028ZM419.882 248.076V269.544H415.449L410.436 266.084L410.313 266.043H408.497V248.41L419.882 248.076ZM408.176 248.417V266.043H407.394V248.441L408.176 248.417ZM407.394 266.46H410.237L415.251 269.913L415.377 269.957H482.247L486.968 272.076H407.394V266.46ZM492.306 214.663L461.21 209.739V209.193L517.941 218.348V219.75L492.58 215.809V214.707L492.306 214.663ZM493.171 223.899L492.58 223.824V222.674L498.923 223.517L493.171 223.899ZM500.433 223.411L492.58 222.37V221.152L506.185 223.029L500.433 223.411ZM507.67 222.937L492.58 220.852V219.559L513.444 222.555L507.67 222.937ZM517.941 222.251L514.889 222.456L492.58 219.255V217.877L517.941 221.664V222.251ZM518.439 222.22V221.736L520.67 222.074L518.439 222.22ZM522.065 221.978L518.439 221.439V221.364H517.938V221.367L492.576 217.577V216.116L527.874 221.596L522.065 221.978ZM529.24 221.5L518.078 219.77H518.442V218.43L526.188 219.685V220.275H526.685V219.764L535.068 221.115L529.24 221.5ZM536.401 221.026L526.681 219.46V218.788H526.184V219.378L461.206 208.886V207.02L517.938 216.556V216.744H518.439V216.642L534.423 219.33V219.965H534.924V219.416L542.233 220.644L536.401 221.026ZM543.538 220.552L534.927 219.105V218.665H534.426V219.023L518.442 216.338V215.311H517.941V216.256L461.21 206.72V205.236L460.716 205.154L420.386 198.244L422.545 197.961L526.188 216.106V217.147H526.685V216.191L549.394 220.166L543.538 220.552ZM550.645 220.081L526.681 215.884V215.652H526.184V215.799L423.533 197.828L431.217 196.825L517.938 212.653V213.725H518.439V212.745L556.516 219.695L550.645 220.081ZM557.752 219.607L526.681 213.936V212.517H526.184V213.844L518.439 212.431V212.281H517.938V212.343L432.197 196.695L439.985 195.675L517.938 210.517V210.691H518.439V210.613L534.423 213.66V214.492H534.924V213.748L563.627 219.214L557.752 219.607ZM564.816 219.139L534.924 213.445V213.189H534.423V213.353L518.439 210.306V209.255H517.938V210.214L440.933 195.556L448.844 194.519L507.821 206.239C509.504 206.935 512.135 207.668 515.581 208.351C518.965 209.019 522.594 209.511 526.188 209.91V210.876H526.685V209.992L534.43 211.534V211.759H534.931V211.636L570.741 218.754L564.816 219.139ZM571.884 218.665L534.924 211.322V210.633C537.23 210.729 539.346 210.739 541.177 210.664L577.827 218.273L571.884 218.665ZM578.948 218.201L542.37 210.606C542.539 210.596 542.745 210.592 542.91 210.579C544.781 210.422 546.046 210.142 546.68 209.767C546.788 209.698 546.839 209.623 546.918 209.552L584.898 217.802L578.948 218.201ZM585.986 217.734L547.152 209.303C547.228 209.166 547.264 209.019 547.239 208.862C547.185 208.555 546.933 208.245 546.468 207.941C545.397 207.235 543.044 206.423 539.353 205.597C534.812 204.58 528.945 203.741 523.38 203.25C521.365 203.072 519.426 202.956 517.57 202.878L467.722 192.055L475.99 190.974L591.948 217.338L585.986 217.734ZM592.993 217.266L476.848 190.858L485.245 189.762L599.001 216.867L592.993 217.266ZM600.01 216.799L486.078 189.657L494.587 188.541L606.036 216.399L600.01 216.799ZM607.005 216.335L495.402 188.435L504.051 187.306L613.057 215.935L607.005 216.335ZM613.994 215.871L504.841 187.203L512.755 186.17L618.992 215.543L613.994 215.871ZM621.551 175.449V215.161L513.346 185.248V119.098L621.551 175.449ZM538.712 131.114V130.34L547.956 135.212L546.965 135.413L538.712 131.114ZM548.425 135.117L538.715 129.999V127.726L551.358 134.52L548.425 135.117ZM551.812 134.424L538.712 127.382V125.045L554.728 133.827L551.812 134.424ZM555.193 133.735L538.715 124.703V122.305L558.105 133.141L555.193 133.735ZM558.556 133.049L449.086 71.8454L452.798 70.484L561.446 132.455L558.556 133.049ZM561.9 132.367L453.173 70.3476L456.885 68.9896L564.784 131.776L561.9 132.367ZM565.234 131.688L457.256 68.8531L460.975 67.4884L568.11 131.097L565.234 131.688ZM568.553 131.012L461.343 67.3553L465.07 65.9905L571.419 130.429L568.553 131.012ZM571.855 130.336L465.437 65.8574L469.171 64.4893L574.709 129.756L571.855 130.336ZM575.149 129.668L469.535 64.3562L473.276 62.9846L577.996 129.084L575.149 129.668ZM578.425 128.999L473.637 62.8549L477.388 61.4799L581.269 128.416L578.425 128.999ZM581.694 128.33L477.738 61.3503L481.493 59.9718L584.519 127.754L581.694 128.33ZM485.941 5.69454L588.134 92.3785V126.512L485.941 57.8087V5.69454ZM485.404 58.5422L587.46 127.157L584.948 127.672L481.857 59.8456L485.404 58.5422ZM399.032 45.1469L399.144 45.0991L404.489 48.0778L404.673 47.7775L399.54 44.9149L484.997 5.41476V57.7302L423.601 80.2252L419.114 73.0021L418.916 72.8212L399.032 62.6843V45.1469ZM418.3 73.6162L435.628 101.523L435.848 101.72L465.722 115.327V129.262L449.536 133.247L400.164 114.539L385.157 93.7672L385.088 93.7126L364.909 85.309C364.941 85.2032 365.035 85.1281 365.035 85.0155C365.035 84.688 364.894 84.3912 364.671 84.1762C364.444 83.9613 364.13 83.8282 363.788 83.8282C363.438 83.8282 363.128 83.9613 362.901 84.1762C362.674 84.3912 362.534 84.688 362.534 85.0155C362.534 85.3397 362.674 85.6365 362.901 85.8515C363.128 86.0664 363.438 86.1961 363.788 86.1961C364.13 86.1961 364.444 86.0664 364.671 85.8515C364.743 85.7798 364.732 85.6638 364.786 85.5819L376.323 90.3859L391.568 113.362L391.644 113.423L419.921 124.011L419.975 124.021L424.809 124.195L449.024 133.373L439.686 135.673L342.037 100.502V28.9743L357.885 37.2585V42.8097L358.155 42.9496L418.3 73.6162ZM423.929 123.867L420.012 123.721L391.802 113.161L376.831 90.6009L384.919 93.9685L399.926 114.74L400.002 114.798L423.929 123.867ZM364.718 85.0155C364.718 85.2578 364.613 85.4796 364.444 85.6399C364.275 85.8003 364.04 85.8992 363.784 85.8992C363.521 85.8992 363.291 85.8003 363.121 85.6399C362.952 85.4796 362.847 85.2578 362.847 85.0155C362.847 84.7733 362.952 84.5481 363.121 84.3912C363.291 84.2308 363.521 84.1284 363.784 84.1284C364.04 84.1284 364.275 84.2308 364.444 84.3912C364.613 84.5481 364.718 84.7699 364.718 85.0155ZM398.665 45.3175V62.4967L380.99 53.4857L398.665 45.3175ZM398.167 44.5532L379.97 52.9603L358.915 42.2263V36.6819L358.645 36.5386L340.264 26.9305L340.199 26.8964V12.2591L398.167 44.5532ZM338.97 2.7398C338.704 2.48731 338.538 2.13588 338.538 1.75033C338.538 1.36478 338.704 1.01335 338.97 0.760865C339.237 0.50838 339.608 0.351431 340.016 0.351431C340.423 0.351431 340.798 0.50838 341.061 0.760865C341.324 1.01335 341.493 1.36478 341.493 1.75033C341.493 2.13588 341.327 2.49072 341.061 2.7398C340.794 2.98887 340.423 3.14923 340.016 3.14923C339.608 3.14582 339.237 2.98887 338.97 2.7398ZM340.023 100.827L340.967 101.168L336.801 102.792L335.867 102.464L340.023 100.827ZM170.671 132.397L325.127 49.2651V50.1727L171.028 132.472L170.671 132.397ZM171.489 132.571L325.127 50.5105V74.5374L237.375 115.999L237.408 116.347L240.233 117.078V133.288L218.255 142.329L171.489 132.571ZM313.695 86.4179L313.587 86.469V103.106L311.179 104.099V87.5711L310.913 87.6939L295.927 94.5144L295.822 94.5622V110.414L293.653 111.308L293.656 95.8314V95.5482L293.393 95.6711L279.719 101.898L279.618 101.949V117.081L277.669 117.886L277.672 103.113V102.836L277.406 102.956L264.885 108.66L264.777 108.708V123.188L263.022 123.915V109.51L262.755 109.629L251.262 114.867L251.157 114.914V128.791L249.622 129.422V114.624L325.12 79.9079V81.2146L313.695 86.4179ZM325.127 81.5968V98.3563L313.958 102.952V86.6874L325.127 81.5968ZM310.805 88.1204V104.249L296.186 110.264V94.784L310.805 88.1204ZM293.292 96.1044L293.285 111.458L279.986 116.928V102.164L293.292 96.1044ZM277.308 103.389L277.301 118.036L265.152 123.035V108.923L277.308 103.389ZM262.658 110.059V124.058L251.536 128.637V115.129L262.658 110.059ZM249.402 114.396L249.312 114.437V129.552L240.864 133.032V116.313L325.127 76.8849V79.5701L249.402 114.396ZM240.406 115.86L240.23 115.945V116.692L238.006 116.115L325.127 74.9537V76.2195L240.406 115.86ZM169.77 163.347L327.055 98.6258L327.369 98.4996V98.1788L327.354 47.7844V46.945L326.58 47.3579L169.77 131.759V128.47L240.81 88.929L241.066 88.7857V84.398L339.5 28.2305V99.9701L169.77 166.708V163.347ZM326.316 49.8793L326.324 73.9745L325.441 74.3873V50.3433L326.316 49.8793ZM325.444 50.0021V49.0945L326.316 48.6271V49.5381L325.444 50.0021ZM326.327 74.3907V75.66L325.444 76.0728V74.8104L326.327 74.3907ZM326.327 76.3219V79.0207L325.444 79.4268V76.7382L326.327 76.3219ZM326.327 79.3517V80.6619L325.444 81.0645V79.7577L326.327 79.3517ZM326.327 81.0474L326.331 97.8581L325.441 98.2266V81.4535L326.327 81.0474ZM171.132 167.233L174.106 166.066L174.369 166.107L171.381 167.274L171.132 167.233ZM171.972 167.363L174.956 166.203L193.86 169.158L190.785 170.232L171.972 167.363ZM117.071 196.958L290.038 136.734V188.756L117.071 223.554V196.958ZM199.266 228.321L120.455 223.899L123.169 223.356L201.788 228.014L199.266 228.321ZM203.446 227.809L124.315 223.121L129.592 222.056L209.761 227.035L203.446 227.809ZM213.689 226.55L211.397 226.833L130.738 221.831L136.061 220.757L213.693 225.793V226.55H213.689ZM213.689 225.499L137.175 220.535L142.559 219.45L213.689 224.278V225.499ZM213.689 223.974L143.669 219.228L149.097 218.133L213.689 222.705V223.974ZM213.689 222.405L150.203 217.911L155.685 216.805L213.689 221.087V222.405ZM213.689 220.787L156.77 216.587L162.309 215.475L213.689 219.419V220.787ZM213.689 219.126L163.394 215.256L168.981 214.134L213.689 217.713V219.126ZM213.689 217.409L170.047 213.916L175.695 212.783L213.689 215.946V217.409ZM213.689 215.642L176.758 212.571L182.471 211.421L213.689 214.12V215.642ZM213.689 213.82L183.512 211.21L189.304 210.046L213.693 212.244V213.82H213.689ZM214.176 210.354L213.689 210.439V211.94L190.313 209.838L196.166 208.661L214.208 210.347L214.176 210.354ZM197.182 208.46L203.086 207.273L221.474 209.05L215.307 210.152L197.182 208.46ZM214.886 211.374L349.101 187.377V240.512L214.886 247.162V211.374ZM229.486 247.571L231.677 247.462L276.926 248.697V248.745L229.486 247.571ZM275.07 253.405L276.923 253.347V270.189H275.07V253.405ZM273.578 260.263L274.634 260.229V270.189H273.578V260.263ZM517.967 273.4H195.481V270.605H341.72L346.982 272.475L347.061 272.489H517.974V273.4H517.967ZM517.967 272.072H487.995L482.384 269.558L482.294 269.537H477.648V268.172H491.574L496.667 270.66L496.768 270.684H517.97V272.072H517.967ZM517.967 270.274H496.818L491.722 267.783L491.621 267.76H478.578V262.123H517.967V270.274ZM534.895 273.4V272.035H542.647L546.688 273.4H534.895ZM547.989 273.4L542.748 271.632L542.673 271.622H534.891V262.123H542.658L570.247 271.537L570.319 271.55H600.395L605.128 273.403H547.989V273.4ZM495.957 19.3867L495.171 18.7384V58.7401L495.369 58.8766L569.642 110.431V110.472H569.7L583.604 120.121L584.361 120.643V92.4434L584.199 92.3069L495.957 19.3867ZM502.747 62.8856L496.122 58.2863V44.4406L502.75 49.3607L502.747 62.8856ZM502.75 48.9785L496.122 44.0585V42.5334L502.75 47.508V48.9785ZM504.318 63.9775L503.064 63.1074V49.5927L504.318 50.5276V63.9775ZM504.318 50.1454L503.064 49.2105V47.74L504.318 48.6851V50.1454ZM522.028 76.2673L507.818 66.3999V53.1206L522.028 63.6772V76.2673ZM522.028 63.2985L507.818 52.7453V51.3089L522.028 61.9746V63.2985ZM523.448 77.2499L522.346 76.4857V63.9126L523.448 64.7315V77.2499ZM523.448 64.3528L522.346 63.5339V62.2135L523.448 63.0392V64.3528ZM538.867 87.9566L526.537 79.4029V67.0346L538.867 76.1922V87.9566ZM538.867 75.8101L526.537 66.6524V65.3661L538.867 74.6227V75.8101ZM540.15 88.8472L539.184 88.175V76.4243L540.15 77.1408V88.8472ZM540.15 76.762L539.184 76.0455V74.8582L540.15 75.5849V76.762ZM553.719 98.2641L542.936 90.7749L542.921 79.1982L553.719 87.2197V98.2641ZM553.719 86.8409L542.921 78.8194V77.6696L553.719 85.7764V86.8409ZM554.88 99.0659L554.036 98.4825V87.4551L554.88 88.0829V99.0659ZM554.88 87.7042L554.036 87.0764V86.0152L554.88 86.6465V87.7042ZM566.903 107.415L557.392 100.813V89.9492L566.903 97.0154V107.415ZM566.903 96.6332L557.392 89.5671V88.5264L566.903 95.6676V96.6332ZM567.959 108.149L567.22 107.633V97.2474L567.959 97.8001V108.149ZM567.959 97.4214L567.22 96.8721V95.9031L567.959 96.4592V97.4214ZM569.646 109.315L568.398 108.452V96.2647L568.319 96.1999L557.309 87.9362L556.956 87.6666V100.509L555.323 99.3764V86.452L555.24 86.3871L542.842 77.0793L542.485 76.8132V77.2397L542.496 90.4747L540.593 89.1542V75.3904L540.51 75.3256L526.458 64.7759L526.105 64.5063V79.0958L523.885 77.5536V62.8379L523.805 62.7799L507.738 50.7186L507.378 50.4525V66.0997L504.761 64.2811V48.4872L504.682 48.4258L496.126 42.0079V40.7148L569.646 96.3944V109.315ZM496.122 39.9164V21.9115L582.368 92.7129L570.042 95.8997L496.122 39.9164ZM582.696 118.374L570.301 109.773V96.4763L582.696 93.2759V118.374ZM496.122 21.5158V20.7071L583.038 92.5389L582.732 92.6174L496.122 21.5158ZM583.413 118.876L583.013 118.596V93.1974L583.413 93.0916V118.876ZM118.722 199.623L118.365 199.736V220.04L119.01 219.897L282.282 183.754L282.689 183.662V146.775L281.99 147L118.722 199.623ZM120.207 218.61L119.417 218.784V200.483L120.207 200.558V218.61ZM146.729 212.735L120.524 218.539V200.582L146.729 203.001V212.735ZM207.76 199.227L147.443 212.578V202.95L207.76 186.579V199.227ZM207.76 185.876L147.05 202.359L120.971 199.95L247.913 159.034L253.1 160.065L253.179 160.058L278.808 151.996V157.874L204.524 179.926L204.553 180.287L207.757 180.728V185.876H207.76ZM207.76 179.946V180.352L205.472 180.038L278.811 158.267V159.099L207.89 179.902L207.76 179.946ZM220.094 196.494L209.898 198.749V181.349L211.887 180.779L220.097 181.929L220.094 196.494ZM220.101 181.628L212.594 180.574L220.101 178.418V181.628ZM233.71 193.481L222.512 195.958V182.27L233.713 183.843L233.71 193.481ZM233.713 183.539L222.512 181.966V177.725L233.717 174.504L233.713 183.539ZM244.85 191.011L236.305 192.901V184.204L244.85 185.402V191.011ZM248.659 190.168L245.167 190.946V176.224L248.659 175.275V190.168ZM248.659 174.965L244.965 175.968L244.85 175.999V185.102L236.305 183.904V173.754L248.656 170.205V174.965H248.659ZM265.148 186.518L261.22 187.388V186.238L265.148 185.34V186.518ZM265.148 184.986L261 185.931L260.856 185.965V187.47L251.478 189.544V174.511L265.152 170.799V184.986H265.148ZM265.148 170.492L251.474 174.2V169.396L265.148 165.466V170.492ZM267.779 185.934L265.588 186.419V185.242L267.779 184.743V185.934ZM267.779 164.275V184.385L265.588 184.883V164.906L265.307 164.988L251.193 169.045L251.035 169.089V189.646L249.092 190.073V169.649L248.811 169.727L236.02 173.402L235.861 173.446V193L234.142 193.379L234.149 174.224V173.945L233.865 174.026L222.22 177.374L222.065 177.418V196.057L220.526 196.402L220.53 178.141V177.865L220.249 177.943L209.617 181.004L209.462 181.045V198.852L208.128 199.145V180.202L278.811 159.464V161.102L267.934 164.231L267.779 164.275ZM268.219 169.656V164.582L278.811 161.535V166.779L268.219 169.656ZM278.811 167.09V181.867L268.219 184.286V169.966L278.811 167.09ZM281.633 182.87L268.219 185.839V184.641L281.633 181.581V182.87ZM281.633 181.222L279.128 181.792V167.005L281.633 166.326V181.222ZM281.633 166.012L279.128 166.691V161.44L281.633 160.723V166.012ZM281.633 160.29L279.128 161.013V159.372L281.633 158.639V160.29ZM281.633 158.274L279.128 159.01V158.175L281.633 157.431V158.274ZM281.633 157.042L279.128 157.786V151.589L278.919 151.658L253.125 159.771L248.501 158.85L281.633 148.167V157.042ZM454.477 240.853L455.115 240.897V209.924L454.614 209.849L360.184 195.293L359.496 195.191V195.856L359.485 234.183V234.708L360.036 234.746L454.477 240.853ZM373.89 234.507L372.477 234.418L372.481 206.512L373.897 206.699L373.89 234.507ZM373.901 206.396L372.485 206.208V204.775L373.901 204.973V206.396ZM390.159 235.561L377.123 234.718V224.226L390.159 225.424V235.561ZM390.159 225.124L377.123 223.923V207.129L390.159 208.866V225.124ZM390.159 208.566L377.123 206.829V205.413L390.159 207.208V208.566ZM391.745 235.66L390.473 235.581V208.91L391.745 209.077V235.66ZM391.745 208.777L390.473 208.607V207.252L391.745 207.429V208.777ZM406.673 236.629L394.743 235.858V225.844L396.722 226.031V233.302L396.87 233.316L406.673 234.036V236.629ZM406.673 233.732L397.039 233.029V225.758L396.895 225.745L394.743 225.544V209.477L406.673 211.067V233.732ZM406.673 210.77L394.743 209.18V207.842L406.673 209.487V210.77ZM408.136 236.721L406.983 236.646V211.111L408.136 211.264V236.721ZM408.136 210.968L406.983 210.814V209.528L408.136 209.688V210.968ZM421.864 237.612L410.926 236.902V234.346L421.864 235.148V237.612ZM421.864 234.851L410.926 234.043L410.918 211.64L421.864 213.1V234.851ZM421.864 212.8L410.918 211.336V210.07L421.864 211.578V212.8ZM423.219 237.697L422.181 237.629V213.141L423.219 213.278V237.697ZM423.219 212.981L422.181 212.841V211.623L423.219 211.766V212.981ZM435.891 238.519L425.825 237.867V235.435L435.891 236.172V238.519ZM435.891 235.878L425.825 235.138V213.632L435.891 214.973V235.878ZM435.891 214.67L425.825 213.329V212.124L435.891 213.513V214.67ZM437.138 238.601L436.208 238.536V236.196L437.138 236.267V238.601ZM437.138 235.967L436.208 235.899V215.011L437.138 215.13V235.967ZM437.138 214.837L436.208 214.714V213.557L437.138 213.684V214.837ZM453.299 210.903L453.742 210.855L453.926 210.886V239.686L453.299 239.642V210.903ZM452.982 239.625L439.704 238.768V212.233L452.982 210.93V239.625ZM360.685 196.511L450.769 210.394L439.326 211.517L360.681 200.264L360.685 196.511ZM360.681 201.018L438.919 212.216V238.717L437.581 238.632V213.329L437.387 213.301L425.638 211.681L425.389 211.647V237.844L423.662 237.728V211.411L423.471 211.38L410.731 209.627L410.482 209.593V209.831L410.493 236.875L408.576 236.752V209.327L408.388 209.299L394.556 207.395L394.307 207.361V235.827L392.192 235.694V207.071L391.997 207.044L376.932 204.969L376.68 204.932V234.688L374.326 234.531L374.334 204.789V204.608L374.146 204.584L360.681 202.721V201.018ZM360.681 203.151L372.167 204.734V206.164L360.681 204.628V203.151ZM360.681 204.935L372.167 206.467L372.164 223.472L360.674 222.415L360.681 204.935ZM360.678 222.712L372.167 223.773V234.398L360.678 233.654V222.712ZM649.231 273.925H650.845V273.454H649.231V273.925ZM645.836 273.925H647.45V273.454H645.836V273.925ZM652.633 273.925H654.247V273.454H652.633V273.925ZM669.622 273.925H671.237V273.454H669.622V273.925ZM666.224 273.925H667.839V273.454H666.224V273.925ZM662.825 273.925H664.44V273.454H662.825V273.925ZM659.427 273.925H661.041V273.454H659.427V273.925ZM656.028 273.925H657.643V273.454H656.028V273.925ZM642.433 273.925H644.052V273.454H642.433V273.925ZM615.248 273.925H616.866V273.454H615.248V273.925ZM625.447 273.925H627.062V273.454H625.447V273.925ZM628.842 273.925H630.461V273.454H628.842V273.925ZM618.65 273.925H620.265V273.454H618.65V273.925ZM635.643 273.925H637.258V273.454H635.643V273.925ZM611.853 273.925H613.467V273.454H611.853V273.925ZM639.038 273.925H640.653V273.454H639.038V273.925ZM622.045 273.925H623.66V273.454H622.045V273.925ZM740.983 273.925H742.598V273.454H740.983V273.925ZM673.021 273.925H674.636V273.454H673.021V273.925ZM723.997 273.925H725.612V273.454H723.997V273.925ZM730.791 273.925H732.405V273.454H730.791V273.925ZM727.392 273.925H729.007V273.454H727.392V273.925ZM734.189 273.925H735.808V273.454H734.189V273.925ZM737.588 273.925H739.203V273.454H737.588V273.925ZM713.798 273.925H715.412V273.454H713.798V273.925ZM710.403 273.925H712.017V273.454H710.403V273.925ZM720.595 273.925H722.21V273.454H720.595V273.925ZM744.385 273.454V273.925H746V273.454H744.385ZM717.2 273.925H718.815V273.454H717.2V273.925ZM696.812 273.925H698.426V273.454H696.812V273.925ZM707.004 273.925H708.619V273.454H707.004V273.925ZM690.014 273.925H691.625V273.454H690.014V273.925ZM683.217 273.925H684.832V273.454H683.217V273.925ZM679.818 273.925H681.433V273.454H679.818V273.925ZM686.612 273.925H688.227V273.454H686.612V273.925ZM700.207 273.925H701.821V273.454H700.207V273.925ZM693.409 273.925H695.024V273.454H693.409V273.925ZM703.605 273.925H705.22V273.454H703.605V273.925ZM676.416 273.925H678.034V273.454H676.416V273.925ZM632.241 273.925H633.856V273.454H632.241V273.925ZM526.681 256.408H526.184V257.896H526.681V256.408ZM526.681 259.544H526.184V261.031H526.681V259.544ZM526.681 253.272H526.184V254.763H526.681V253.272ZM526.681 250.137H526.184V251.628H526.681V250.137ZM526.184 270.435H526.681V268.947H526.184V270.435ZM526.681 265.815H526.184V267.302H526.681V265.815ZM526.681 206.246H526.184V207.737H526.681V206.246ZM526.681 247.001H526.184V248.492H526.681V247.001ZM526.681 262.679H526.184V264.167H526.681V262.679ZM526.681 228.191H526.184V229.679H526.681V228.191ZM526.681 237.595H526.184V239.086H526.681V237.595ZM526.681 225.056H526.184V226.543H526.681V225.056ZM526.681 240.73H526.184V242.221H526.681V240.73ZM526.681 231.327H526.184V232.814H526.681V231.327ZM526.681 243.866H526.184V245.357H526.681V243.866ZM526.681 234.462H526.184V235.95H526.681V234.462ZM534.927 237.816H534.426V239.116H534.927V237.816ZM534.927 235.083H534.426V236.383H534.927V235.083ZM534.927 226.874H534.426V228.167H534.927V226.874ZM534.927 232.344H534.426V233.643H534.927V232.344ZM534.426 258.271H534.927V256.974H534.426V258.271ZM534.927 248.762H534.426V250.062H534.927V248.762ZM534.927 251.502H534.426V252.802H534.927V251.502ZM534.927 254.238H534.426V255.535H534.927V254.238ZM534.927 224.138H534.426V225.438H534.927V224.138ZM534.927 240.553H534.426V241.853H534.927V240.553ZM534.927 243.292H534.426V244.592H534.927V243.292ZM534.927 246.029H534.426V247.322H534.927V246.029ZM534.927 229.611H534.426V230.907H534.927V229.611ZM534.927 207.716H534.426V209.013H534.927V207.716ZM534.927 215.929H534.426V217.229H534.927V215.929ZM517.941 207.668H518.442V206.232H517.941V207.668ZM518.439 242.538H517.938V243.975H518.439V242.538ZM518.439 224.383H517.938V225.82H518.439V224.383ZM517.941 253.051H518.442V251.618H517.941V253.051ZM518.439 245.568H517.938V246.998H518.439V245.568ZM518.439 227.413H517.938V228.846H518.439V227.413ZM518.439 233.463H517.938V234.896H518.439V233.463ZM518.439 239.509H517.938V240.945H518.439V239.509ZM518.439 236.489H517.938V237.925H518.439V236.489ZM518.439 230.436H517.938V231.873H518.439V230.436ZM518.439 248.588H517.938V250.024H518.439V248.588ZM580.187 270.121H582.534V267.899H580.187V270.121ZM582.534 257.241H580.187V259.458H582.534V257.241ZM582.534 262.567H580.187V264.784H582.534V262.567ZM582.534 251.911H580.187V254.129H582.534V251.911ZM370.506 148.986H370.009V150.423H370.506V148.986ZM370.506 145.953H370.009V147.393H370.506V145.953ZM370.506 176.251H370.009V177.684H370.506V176.251ZM370.506 179.281H370.009V180.717H370.506V179.281ZM370.506 173.221H370.009V174.661H370.506V173.221ZM370.506 182.314H370.009V183.751H370.506V182.314ZM370.506 185.337H370.009V186.777H370.506V185.337ZM370.506 158.072H370.009V159.512H370.506V158.072ZM370.506 170.191H370.009V171.628H370.506V170.191ZM370.506 161.102H370.009V162.538H370.506V161.102ZM370.506 164.135H370.009V165.568H370.506V164.135ZM370.506 167.162H370.009V168.601H370.506V167.162ZM317.122 171.874H316.625V173.388H317.122V171.874ZM317.122 178.257H316.625V179.772H317.122V178.257ZM317.122 175.064H316.625V176.579H317.122V175.064ZM316.621 141.473H317.119V139.958H316.621V141.473ZM317.122 187.835H316.625V189.35H317.122V187.835ZM317.122 136.765H316.625V138.279H317.122V136.765ZM317.122 184.638H316.625V186.156H317.122V184.638ZM317.122 181.451H316.625V182.966H317.122V181.451ZM317.122 149.532H316.625V151.05H317.122V149.532ZM317.122 155.912H316.625V157.431H317.122V155.912ZM317.122 152.726H316.625V154.241H317.122V152.726ZM317.122 168.68H316.625V170.198H317.122V168.68ZM317.122 165.49H316.625V167.008H317.122V165.49ZM317.122 162.3H316.625V163.815H317.122V162.3ZM317.122 146.339H316.625V147.853H317.122V146.339ZM317.122 159.109H316.625V160.624H317.122V159.109ZM205.212 138.812H205.71V137.348H205.212V138.812ZM205.212 135.731H205.71V134.267H205.212V135.731ZM205.212 129.565H205.71V128.102H205.212V129.565ZM205.71 143.51H205.212V144.974H205.71V143.51ZM205.212 132.65H205.71V131.183H205.212V132.65ZM205.212 123.403H205.71V121.94H205.212V123.403ZM205.212 126.484H205.71V125.021H205.212V126.484ZM205.71 99.7586H205.212V101.355H205.71V99.7586ZM205.71 96.3978H205.212V97.9912H205.71V96.3978ZM205.71 86.3223H205.212V87.9191H205.71V86.3223ZM205.71 89.6831H205.212V91.2799H205.71V89.6831ZM205.212 104.713H205.71V103.116H205.212V104.713ZM289.263 43.1816L288.996 42.7858L287.638 43.6081L287.904 44.0039L289.263 43.1816ZM292.121 41.4415L291.854 41.0457L290.496 41.8714L290.766 42.2672L292.121 41.4415ZM297.844 37.9648L297.578 37.5656L296.219 38.3913L296.486 38.787L297.844 37.9648ZM266.373 57.0956L266.103 56.6998L264.744 57.5255L265.011 57.9213L266.373 57.0956ZM286.398 44.9183L286.131 44.5225L284.772 45.3482L285.043 45.744L286.398 44.9183ZM272.097 53.6188L271.826 53.223L270.471 54.0487L270.742 54.4445L272.097 53.6188ZM274.955 51.8753L274.688 51.4795L273.329 52.3052L273.6 52.701L274.955 51.8753ZM300.702 36.2247L300.436 35.8289L299.077 36.6546L299.344 37.0504L300.702 36.2247ZM269.232 55.3589L268.965 54.9597L267.606 55.7854L267.876 56.1812L269.232 55.3589ZM283.536 46.6584L283.269 46.2626L281.911 47.0883L282.177 47.4841L283.536 46.6584ZM277.816 50.142L277.546 49.7428L276.187 50.5685L276.458 50.9643L277.816 50.142ZM280.678 48.3985L280.408 48.0027L279.053 48.825L279.319 49.2242L280.678 48.3985ZM294.986 39.7014L294.712 39.3057L293.354 40.1313L293.624 40.5271L294.986 39.7014ZM332.177 17.087L331.91 16.6913L330.551 17.5169L330.818 17.9127L332.177 17.087ZM329.315 18.8271L329.041 18.4314L327.686 19.2536L327.953 19.6528L329.315 18.8271ZM303.568 34.4812L303.297 34.0854L301.938 34.9111L302.209 35.3069L303.568 34.4812ZM346.481 8.3934L346.211 7.9942L344.852 8.81989L345.122 9.21568L346.481 8.3934ZM323.592 22.3073L323.325 21.9115L321.966 22.7372L322.237 23.133L323.592 22.3073ZM343.62 10.1301L343.349 9.73429L341.991 10.56L342.264 10.9558L343.62 10.1301ZM326.45 20.5706L326.183 20.1714L324.824 20.9971L325.095 21.3929L326.45 20.5706ZM309.287 31.0044L309.017 30.6086L307.658 31.4309L307.925 31.8301L309.287 31.0044ZM312.149 29.2643L311.879 28.8685L310.523 29.6942L310.79 30.09L312.149 29.2643ZM315.01 27.5242L314.744 27.1284L313.385 27.9541L313.652 28.3499L315.01 27.5242ZM317.868 25.7875L317.602 25.3883L316.243 26.214L316.513 26.6098L317.868 25.7875ZM320.734 24.0474L320.463 23.6516L319.108 24.4773L319.375 24.8731L320.734 24.0474ZM306.426 32.7411L306.159 32.3453L304.8 33.171L305.067 33.5668L306.426 32.7411ZM217.737 86.6669L217.47 86.2711L216.111 87.0968L216.378 87.4926L217.737 86.6669ZM226.321 81.4501L226.055 81.0543L224.696 81.88L224.963 82.2757L226.321 81.4501ZM212.013 90.1471L211.747 89.7513L210.388 90.5736L210.655 90.9728L212.013 90.1471ZM223.46 83.1867L223.189 82.791L221.834 83.6166L222.101 84.0124L223.46 83.1867ZM209.155 91.8838L208.889 91.488L207.53 92.3137L207.8 92.7095L209.155 91.8838ZM263.512 58.8357L263.242 58.4399L261.883 59.2656L262.153 59.6613L263.512 58.8357ZM214.878 88.407L214.608 88.0112L213.253 88.8369L213.52 89.2327L214.878 88.407ZM334.768 14.9512L333.409 15.7769L333.68 16.1726L335.035 15.3469L334.768 14.9512ZM337.626 13.2145L336.271 14.0368L336.538 14.4325L337.896 13.6103L337.626 13.2145ZM200.57 97.1041L200.3 96.7049L198.945 97.5306L199.212 97.9264L200.57 97.1041ZM203.432 95.364L203.165 94.9682L201.807 95.7905L202.073 96.1897L203.432 95.364ZM205.212 94.2824V94.6338H205.71V93.9787L206.29 93.6239L206.023 93.2281L205.71 93.4158V93.0405H205.212V93.7194L204.661 94.0538L204.931 94.4496L205.212 94.2824ZM220.598 84.9268L220.328 84.5276L218.969 85.3533L219.236 85.7491L220.598 84.9268ZM252.069 65.7926L251.802 65.3968L250.443 66.2191L250.71 66.6183L252.069 65.7926ZM254.931 64.0559L254.66 63.6602L253.302 64.4858L253.572 64.8816L254.931 64.0559ZM229.179 79.71L228.909 79.3108L227.55 80.1365L227.821 80.5322L229.179 79.71ZM246.346 69.2694L246.079 68.8736L244.72 69.6993L244.994 70.0951L246.346 69.2694ZM257.789 62.3124L257.522 61.9166L256.163 62.7423L256.43 63.1381L257.789 62.3124ZM260.65 60.5757L260.384 60.18L259.025 61.0022L259.291 61.4014L260.65 60.5757ZM249.207 67.5361L248.941 67.1369L247.582 67.9626L247.849 68.3584L249.207 67.5361ZM234.903 76.2298L234.636 75.834L233.277 76.6597L233.548 77.0555L234.903 76.2298ZM232.045 77.9699L231.774 77.5741L230.419 78.3964L230.686 78.7956L232.045 77.9699ZM240.626 72.753L240.356 72.3572L239.001 73.1795L239.267 73.5753L240.626 72.753ZM243.484 71.0129L243.217 70.6171L241.859 71.4428L242.129 71.8386L243.484 71.0129ZM237.761 74.4897L237.494 74.0939L236.135 74.9196L236.409 75.3154L237.761 74.4897Z" fill="#BFAFCF"/>
</svg>
