<svg width="97" height="87" viewBox="0 0 97 87" fill="none" xmlns="http://www.w3.org/2000/svg">
<path d="M4.35755 39.2149C2.35755 36.8815 -0.842446 31.1149 2.35755 26.7149C5.4718 22.4328 18.3099 9.59504 24.8335 3.22599C25.1831 2.88467 25.5676 2.58959 26.0086 2.37921C27.6811 1.58127 32.2511 -0.189461 35.8577 2.21487C40.3577 5.21484 46.8577 13.444 46.8577 13.444M20.8577 56.2149C20.8577 56.2149 15.3516 56.498 13.3577 54.2149C11.8864 52.5301 12.1682 49.2658 12.5104 47.3093C12.6947 46.2552 13.2649 45.3242 14.0372 44.5835L33.2832 26.123C35.5724 23.9272 39.1753 23.8927 41.5062 26.0443L49.4046 33.3351C50.0327 33.9149 50.775 34.3611 51.6089 34.5493C53.6005 34.9988 57.4142 35.4999 58.8577 33.2148C59.5826 32.0673 59.8182 30.2885 59.8805 28.8816C59.9424 27.4817 59.3208 26.1669 58.3403 25.1659L46.8577 13.444M20.8577 56.2149L38.3577 40.2149M20.8577 56.2149C20.8577 56.2149 21.4393 62.6244 24.3577 64.7149C26.4755 66.2319 30.8577 66.2149 30.8577 66.2149M30.8577 66.2149L48.8577 48.2149M30.8577 66.2149C30.8577 66.2149 30.8408 72.1223 33.3577 74.2149C35.5074 76.0022 40.3577 75.7149 40.3577 75.7149M40.3577 75.7149L58.3577 58.2149M40.3577 75.7149C40.3577 75.7149 40.5707 82.0644 43.3577 84.2149C44.5359 85.1241 46.4434 85.4903 47.9698 85.6341C49.4982 85.778 50.9527 85.1 52.0203 83.9968L94.5142 40.0865C95.0709 39.5112 95.5126 38.8319 95.6894 38.0512C96.0385 36.5102 96.4055 33.5903 95.3577 30.2149C93.9765 25.7656 74.4627 8.24845 70.1833 4.44578C69.6291 3.95337 69.0035 3.58251 68.296 3.36136C66.222 2.71314 61.556 1.46658 58.3577 2.21487C52.2458 3.64481 46.8577 13.444 46.8577 13.444" stroke="#5D6F4F" stroke-width="0.8"/>
</svg>
