<svg width="94" height="94" viewBox="0 0 94 94" fill="none" xmlns="http://www.w3.org/2000/svg">
<path d="M46.9987 86.1663C47.9544 86.1663 48.8434 85.7238 50.6255 84.8347L64.9214 77.7181C71.2546 74.573 74.4154 72.9946 74.4154 70.4997V39.1663M46.9987 86.1663C46.043 86.1663 45.154 85.7238 43.3719 84.8347L29.076 77.7181C22.7428 74.573 19.582 72.9946 19.582 70.4997V39.1663M46.9987 86.1663V54.833M74.4154 39.1663C74.4154 36.6714 71.2507 35.0969 64.9253 31.9479L50.6255 24.8274C48.8395 23.9423 47.9544 23.4997 46.9987 23.4997M74.4154 39.1663C74.4154 41.6613 71.2507 43.2358 64.9253 46.3848L50.6255 53.5053C48.8434 54.3904 47.9544 54.833 46.9987 54.833M19.582 39.1663C19.582 36.6714 22.7428 35.093 29.076 31.9479L43.3719 24.8313C45.154 23.9423 46.043 23.4997 46.9987 23.4997M19.582 39.1663C19.582 41.6613 22.7467 43.2358 29.0721 46.3848L43.3719 53.5053C45.154 54.3904 46.043 54.833 46.9987 54.833M46.9987 23.4997V7.83301M86.1654 82.2497L74.4154 72.458M7.83203 82.2497L19.582 72.458" stroke="white" stroke-width="0.394958" stroke-linecap="round" stroke-linejoin="round"/>
</svg>
